<svg width="195" height="229" viewBox="0 0 195 229" fill="none" xmlns="http://www.w3.org/2000/svg">
<g id="beard-burger">
<g id="burger">
<path id="bottom-bun" fill-rule="evenodd" clip-rule="evenodd" d="M23.451 132H171.787C174.443 132 176.617 133.866 176.617 136.137V140.216C176.617 149.445 167.798 157 157.024 157H38.2106C27.4367 157 18.6172 149.448 18.6172 140.216V136.137C18.6172 133.862 20.7912 132 23.4471 132H23.451Z" fill="#F7B83E"/>
<path id="Vector" fill-rule="evenodd" clip-rule="evenodd" d="M23.5601 128.155H171.9C177.757 128.155 182.55 123.362 182.55 117.505C182.55 111.648 177.757 106.855 171.9 106.855H23.5601C17.7032 106.855 12.9102 111.648 12.9102 117.505C12.9102 123.362 17.7032 128.155 23.5601 128.155Z" fill="#C47302"/>
<path id="Vector_2" fill-rule="evenodd" clip-rule="evenodd" d="M23.2897 132H171.945C177.814 132 182.617 125.699 182.617 118H12.6172C12.6172 125.699 17.4204 132 23.2897 132Z" fill="#905504"/>
<path id="Vector_3" fill-rule="evenodd" clip-rule="evenodd" d="M174.887 97.3887H20.5737C18.7942 97.3887 17.3435 101.843 17.3435 103.623C17.3435 105.402 18.798 106.857 20.5737 106.857H54.6172L119.216 128.244C121.386 129.23 124.937 129.23 127.108 128.244L175.158 106.845C175.916 106.779 176.601 106.451 177.119 105.952C177.734 105.36 178.117 104.536 178.117 103.623C178.117 101.843 176.663 97.3887 174.883 97.3887H174.887Z" fill="#ECD100"/>
<path id="Vector_4" fill-rule="evenodd" clip-rule="evenodd" d="M23.2897 97H171.945C177.814 97 182.617 92.2744 182.617 86.5C182.617 80.7256 177.814 76 171.945 76H23.2897C17.4204 76 12.6172 80.7256 12.6172 86.5C12.6172 92.2744 17.4204 97 23.2897 97Z" fill="#844E03"/>
<path id="Vector_5" fill-rule="evenodd" clip-rule="evenodd" d="M23.2897 98H171.945C177.814 98 182.617 93.0494 182.617 87H12.6172C12.6172 93.0494 17.4204 98 23.2897 98Z" fill="#6E4103"/>
<path id="Vector_6" fill-rule="evenodd" clip-rule="evenodd" d="M20.8557 67H175.383C177.164 67 178.617 69.2488 178.617 72C178.617 74.7512 177.161 77 175.383 77H20.8557C19.0776 77 17.6172 74.7512 17.6172 72C17.6172 69.2488 19.0737 67 20.8557 67Z" fill="#24B54B"/>
<path id="Vector_7" fill-rule="evenodd" clip-rule="evenodd" d="M25.1367 67.0803H170.324V54.9062H25.1367V67.0803Z" fill="#CE0B10"/>
<g id="top-bun-and-seeeds">
<path id="top-bun" fill-rule="evenodd" clip-rule="evenodd" d="M23.2964 54.9067H172.163C174.828 54.9067 177.01 52.7171 177.01 50.0556C177.01 -16.6833 18.4492 -16.6871 18.4492 50.0556C18.4492 52.721 20.631 54.9067 23.2964 54.9067Z" fill="#E6A322"/>
<g id="seeds">
<path id="Vector_8" fill-rule="evenodd" clip-rule="evenodd" d="M101.189 12.2109C99.4787 12.2109 98.0938 13.5997 98.0938 15.3135C98.0938 17.0272 99.4825 18.4082 101.196 18.4082C102.906 18.4082 104.291 17.0194 104.291 15.3057C104.291 13.5959 102.902 12.2109 101.189 12.2109Z" fill="#F4CF6B"/>
<path id="Vector_9" fill-rule="evenodd" clip-rule="evenodd" d="M116.013 21.0879C114.303 21.0879 112.918 22.4767 112.918 24.1904C112.918 25.9041 114.307 27.2852 116.02 27.2852C117.73 27.2852 119.115 25.8964 119.115 24.1827C119.115 22.4728 117.726 21.0879 116.013 21.0879Z" fill="#F4CF6B"/>
<path id="Vector_10" fill-rule="evenodd" clip-rule="evenodd" d="M118.56 7.34961C116.85 7.34961 115.465 8.7384 115.465 10.4521C115.465 12.162 116.854 13.5469 118.567 13.5469C120.277 13.5469 121.662 12.1581 121.662 10.4444C121.662 8.73065 120.273 7.34961 118.56 7.34961Z" fill="#F4CF6B"/>
<path id="Vector_11" fill-rule="evenodd" clip-rule="evenodd" d="M130.286 16.4922C128.576 16.4922 127.191 17.881 127.191 19.5908C127.191 21.3007 128.58 22.6856 130.294 22.6856C132.004 22.6856 133.389 21.2968 133.389 19.587C133.389 17.8771 132 16.4883 130.286 16.4922Z" fill="#F4CF6B"/>
<path id="Vector_12" fill-rule="evenodd" clip-rule="evenodd" d="M144.958 13.7832C143.248 13.7832 141.863 15.172 141.863 16.8857C141.863 18.5956 143.252 19.9805 144.966 19.9805C146.676 19.9805 148.061 18.5917 148.061 16.878C148.061 15.1681 146.672 13.7832 144.958 13.7832Z" fill="#F4CF6B"/>
<path id="Vector_13" fill-rule="evenodd" clip-rule="evenodd" d="M140.931 28.4688C139.221 28.4688 137.836 29.8575 137.836 31.5713C137.836 33.2811 139.225 34.666 140.935 34.666C142.644 34.666 144.029 33.2773 144.029 31.5635C144.029 29.8537 142.641 28.4649 140.931 28.4688Z" fill="#F4CF6B"/>
<path id="Vector_14" fill-rule="evenodd" clip-rule="evenodd" d="M158.708 26.1621C156.998 26.1621 155.613 27.5509 155.613 29.2646C155.613 30.9784 157.002 32.3594 158.716 32.3594C160.426 32.3594 161.811 30.9706 161.811 29.2569C161.811 27.547 160.422 26.1621 158.708 26.1621Z" fill="#F4CF6B"/>
<path id="Vector_15" fill-rule="evenodd" clip-rule="evenodd" d="M100.794 27.8359C99.0841 27.8359 97.6992 29.2247 97.6992 30.9385C97.6992 32.6483 99.088 34.0332 100.802 34.0332C102.512 34.0332 103.897 32.6444 103.897 30.9307C103.897 29.2209 102.508 27.8359 100.798 27.8359H100.794Z" fill="#F4CF6B"/>
<path id="Vector_16" fill-rule="evenodd" clip-rule="evenodd" d="M87.8448 4.54879C86.1349 4.54879 84.75 5.93758 84.75 7.64744C84.75 9.35731 86.1388 10.7422 87.8525 10.7422C89.5624 10.7422 90.9473 9.35343 90.9473 7.6397C90.9473 5.92983 89.5585 4.54492 87.8448 4.54492V4.54879Z" fill="#F4CF6B"/>
<path id="Vector_17" fill-rule="evenodd" clip-rule="evenodd" d="M85.9776 20.0371C84.2677 20.0371 82.8828 21.4259 82.8828 23.1396C82.8828 24.8495 84.2716 26.2344 85.9853 26.2344C87.6952 26.2344 89.0801 24.8456 89.0801 23.1319C89.0801 21.422 87.6913 20.0371 85.9776 20.0371Z" fill="#F4CF6B"/>
<path id="Vector_18" fill-rule="evenodd" clip-rule="evenodd" d="M72.9034 8.87305C71.1935 8.87305 69.8086 10.2618 69.8086 11.9756C69.8086 13.6854 71.1974 15.0703 72.9111 15.0703C74.621 15.0703 76.0059 13.6816 76.0059 11.9717C76.0059 10.2618 74.6171 8.87305 72.9072 8.87692L72.9034 8.87305Z" fill="#F4CF6B"/>
<path id="Vector_19" fill-rule="evenodd" clip-rule="evenodd" d="M71.7042 23.8242C69.9943 23.8242 68.6094 25.213 68.6094 26.9267C68.6094 28.6366 69.9982 30.0215 71.7119 30.0215C73.4218 30.0215 74.8067 28.6327 74.8067 26.919C74.8067 25.2091 73.4179 23.8242 71.7042 23.8242Z" fill="#F4CF6B"/>
<path id="Vector_20" fill-rule="evenodd" clip-rule="evenodd" d="M59.9776 15.2168C58.2677 15.2168 56.8828 16.6055 56.8828 18.3154C56.8828 20.0253 58.2716 21.4102 59.9853 21.4102C61.6952 21.4102 63.0801 20.0214 63.0801 18.3077C63.0801 16.5978 61.6913 15.2129 59.9815 15.2129L59.9776 15.2168Z" fill="#F4CF6B"/>
<path id="Vector_21" fill-rule="evenodd" clip-rule="evenodd" d="M53.7901 27.6113C52.0802 27.6113 50.6953 29.0001 50.6953 30.7139C50.6953 32.4237 52.0841 33.8086 53.7978 33.8086C55.5077 33.8086 56.8926 32.4198 56.8926 30.7061C56.8926 28.9962 55.5038 27.6113 53.7901 27.6113Z" fill="#F4CF6B"/>
<path id="Vector_22" fill-rule="evenodd" clip-rule="evenodd" d="M125.075 32.7363C123.365 32.7363 121.98 34.1251 121.98 35.8349C121.98 37.5448 123.369 38.9297 125.083 38.9297C126.793 38.9297 128.178 37.5409 128.178 35.8272C128.178 34.1173 126.789 32.7324 125.075 32.7324V32.7363Z" fill="#F4CF6B"/>
<path id="Vector_23" fill-rule="evenodd" clip-rule="evenodd" d="M85.212 34.3906C83.5021 34.3906 82.1172 35.7794 82.1172 37.4931C82.1172 39.203 83.506 40.5879 85.2197 40.5879C86.9296 40.5879 88.3145 39.1991 88.3145 37.4893C88.3145 35.7794 86.9257 34.3945 85.2158 34.3945L85.212 34.3906Z" fill="#F4CF6B"/>
<path id="Vector_24" fill-rule="evenodd" clip-rule="evenodd" d="M43.1768 17.7305C41.4669 17.7305 40.082 19.1192 40.082 20.833C40.082 22.5428 41.4708 23.9277 43.1845 23.9277C44.8944 23.9277 46.2793 22.539 46.2793 20.8252C46.2793 19.1154 44.8905 17.7305 43.1807 17.7305H43.1768Z" fill="#F4CF6B"/>
</g>
</g>
</g>
<path id="beard" d="M25.6099 112.177C30.9925 119.784 40.3727 119.307 40.3727 119.307C40.3727 119.307 47.3122 110.288 51.6336 109.306C57.8084 107.113 65.3014 111.876 67.7987 109.306C70.296 106.737 60.8063 105.526 60.8063 105.526C60.8063 105.526 67.56 103.243 70.3104 102.542C73.0608 101.835 84.1895 101.415 89.1667 103.53C94.1438 105.645 95.7148 108.036 95.7148 108.036C95.7148 108.036 96.8281 115.29 95.7148 116.985C94.6014 118.675 91.5256 121.79 85.4351 120.732C79.3445 119.675 73.259 124.325 65.201 124.325C57.143 124.325 55.7567 122.637 51.8268 120.948C47.8969 119.258 40.632 121.847 40.632 121.847C40.632 121.847 40.2593 124.536 41.0422 128.128C41.8302 131.72 45.5618 137.847 48.3122 137.236C51.0626 136.62 51.015 135.849 52.8444 135.953C58.1586 136.256 53.6148 142.497 58.1293 149.262C62.6489 156.026 78.1473 156.445 82.0772 155.175C86.0071 153.905 87.2469 151.371 87.1688 147.805C87.089 144.16 82.5229 139.636 82.5229 139.636H113.389C113.389 139.636 107.823 144.16 107.743 147.805C107.665 151.371 108.905 153.91 112.835 155.175C116.765 156.445 132.263 156.021 136.783 149.262C141.302 142.497 136.753 136.256 142.068 135.953C143.897 135.849 143.855 136.62 146.6 137.236C149.35 137.853 153.082 131.725 153.87 128.128C154.658 124.536 153.28 121.847 153.28 121.847C153.28 121.847 146.01 119.258 142.085 120.948C138.155 122.637 137.764 124.325 129.711 124.325C121.658 124.325 115.568 119.675 109.477 120.732C103.386 121.79 100.311 118.675 99.1973 116.985C98.0839 115.295 99.1973 108.036 99.1973 108.036C99.1973 108.036 100.768 105.64 105.745 103.53C110.723 101.42 121.851 101.84 124.602 102.542C127.352 103.248 133.768 106.485 133.768 106.485C133.768 106.485 123.162 107.372 126.696 110.153C130.231 112.934 137.224 108.172 143.279 109.306C149.333 110.441 154.539 119.307 154.539 119.307C154.539 119.307 162.737 119.932 168.303 113.235C174.239 106.095 175.682 96 175.682 96C175.682 96 180.905 100.763 183.403 114.745C185.748 127.866 184.579 136.063 180.906 148.837C176.897 162.781 167.81 175.746 162.965 180.959C158.12 186.173 154.539 192.092 154.539 192.092L151.617 180.959C151.617 180.959 150.163 189.231 147.213 195.489C143.976 202.356 136.783 211.894 136.783 211.894L132.065 192.092C132.065 192.092 131.018 198.012 128.923 199.84C126.828 201.673 123.576 204.574 120.742 208.19C113.429 217.522 113.389 228.325 113.389 228.325C113.389 228.325 107.579 211.005 105.745 211.894C99.1973 215.069 95.8693 228.325 95.8693 228.325C95.8693 228.325 91.5975 216.344 85.4351 211.894C82.8382 210.019 81.6134 205.544 78.1172 208.19C74.6616 210.805 70.3104 221.949 70.3104 221.949C70.3104 221.949 59.8436 210.419 54.3141 201.31C51.104 196.022 45.8233 187.022 45.8233 187.022L35.8341 202.232C35.8341 202.232 37.0681 186.644 30.8396 178.706C24.611 170.768 17.2748 160.952 14.0008 148.837C7.36505 116.985 16.378 96.5292 19.352 96.5292C19.352 96.5292 22.7205 108.093 25.6099 112.177Z" fill="#424242"/>
<g id="beard_2" filter="url(#filter0_d_4427_3812)">
<path d="M169.854 112.784C164.466 119.972 154.074 119.521 154.074 119.521C154.074 119.521 147.127 111 142.801 110.072C136.62 108 130.12 112.5 127.62 110.072C125.12 107.644 134.62 106.5 134.62 106.5C134.62 106.5 127.859 104.343 125.105 103.681C122.352 103.013 111.211 102.616 106.228 104.614C101.246 106.613 99.6732 108.872 99.6732 108.872C99.6732 108.872 98.5586 115.726 99.6732 117.327C100.788 118.924 103.867 120.922 109.964 119.923C116.061 118.924 122.153 123.317 130.22 123.317C138.287 123.317 138.674 121.723 142.608 120.126C146.542 118.53 153.815 121.921 153.815 121.921C153.815 121.921 155.189 124.461 154.405 127.855C153.616 131.249 149.881 137.038 147.127 136.461C144.374 135.879 144.421 135.15 142.59 135.249C137.27 135.535 141.819 141.432 137.299 147.823C132.775 154.215 117.26 154.61 113.326 153.41C109.391 152.21 108.15 149.816 108.228 146.447C108.308 143.003 113.88 139.674 113.88 139.674H81.9796C81.9796 139.674 87.5518 143.003 87.6317 146.447C87.7098 149.816 86.4687 152.215 82.5345 153.41C78.6004 154.61 63.0851 154.209 58.5606 147.823C54.0361 141.432 58.5899 135.535 53.27 135.249C51.4386 135.15 51.4811 135.879 48.7328 136.461C45.9795 137.043 42.2438 131.254 41.455 127.855C40.6661 124.461 42.0453 121.921 42.0453 121.921C42.0453 121.921 49.3232 118.53 53.2523 120.126C57.1864 121.723 57.5784 123.317 65.64 123.317C73.7017 123.317 79.7989 118.924 85.896 119.923C91.9932 120.922 95.0723 118.924 96.1869 117.327C97.3015 115.731 96.1869 108.872 96.1869 108.872C96.1869 108.872 94.6142 106.608 89.6317 104.614C84.6491 102.621 73.5083 103.018 70.7549 103.681C68.0015 104.348 61.5786 107.406 61.5786 107.406C61.5786 107.406 72.1965 108.244 68.658 110.872C65.1196 113.5 59.1196 109 53.0589 110.072C46.9982 111.144 41.7858 119.521 41.7858 119.521C41.7858 119.521 32.5782 120.112 27.0058 113.784C21.0641 107.038 19.6196 97.5 19.6196 97.5C19.6196 97.5 14.39 102 11.8893 115.211C9.54261 127.607 9.13733 135.95 14.3893 147.421C18.8016 157.059 23.9159 159.454 29.1172 167.772C33.6532 175.026 39.6172 187 39.6172 187V170L48.1188 181.5L58.5606 197L62.2836 181.291C62.2836 181.291 64.3535 186.729 66.1172 190C68.972 195.295 71.9033 195.815 75.1172 202.5C78.1784 208.867 82.5345 219 82.5345 219C82.5345 219 87.7963 196.16 89.6317 197C96.1869 200 103.619 224.5 103.619 224.5C103.619 224.5 105.536 207.798 110.119 200C111.882 197 114.119 195.5 117.619 198C121.078 200.471 126.105 210.5 126.105 210.5C126.105 210.5 135.583 195.606 141.119 187C144.332 182.004 149.619 173.5 149.619 173.5L161.617 194C161.617 194 160.382 176 166.617 168.5C172.853 161 177.264 156.842 181.476 147.421C189.4 129.699 179.096 98 176.119 98C176.119 98 172.747 108.926 169.854 112.784Z" fill="black"/>
</g>
</g>
<defs>
<filter id="filter0_d_4427_3812" x="10.2344" y="97.5" width="176.176" height="131" filterUnits="userSpaceOnUse" color-interpolation-filters="sRGB">
<feFlood flood-opacity="0" result="BackgroundImageFix"/>
<feColorMatrix in="SourceAlpha" type="matrix" values="0 0 0 0 0 0 0 0 0 0 0 0 0 0 0 0 0 0 127 0" result="hardAlpha"/>
<feOffset dx="1" dy="3"/>
<feGaussianBlur stdDeviation="0.5"/>
<feComposite in2="hardAlpha" operator="out"/>
<feColorMatrix type="matrix" values="0 0 0 0 0.800255 0 0 0 0 0.800255 0 0 0 0 0.800255 0 0 0 0.29 0"/>
<feBlend mode="normal" in2="BackgroundImageFix" result="effect1_dropShadow_4427_3812"/>
<feBlend mode="normal" in="SourceGraphic" in2="effect1_dropShadow_4427_3812" result="shape"/>
</filter>
</defs>
</svg>
