<svg width="201" height="200" viewBox="0 0 201 200" fill="none" xmlns="http://www.w3.org/2000/svg">
<g id="beard-burger">
<g id="burger">
<path id="bottom-bun" fill-rule="evenodd" clip-rule="evenodd" d="M25.6831 133.156H174.55C177.215 133.156 179.397 135.342 179.397 138.003V142.781C179.397 153.593 170.546 162.444 159.733 162.444H40.4955C29.6831 162.444 20.832 153.597 20.832 142.781V138.003C20.832 135.338 23.0138 133.156 25.6792 133.156H25.6831Z" fill="#F7B83E"/>
<path id="Vector" fill-rule="evenodd" clip-rule="evenodd" d="M25.9429 133.155H174.283C180.14 133.155 184.933 128.362 184.933 122.505C184.933 116.648 180.14 111.855 174.283 111.855H25.9429C20.086 111.855 15.293 116.648 15.293 122.505C15.293 128.362 20.086 133.155 25.9429 133.155Z" fill="#C47302"/>
<path id="Vector_2" fill-rule="evenodd" clip-rule="evenodd" d="M27.5195 67.0803H172.707V54.9062H27.5195V67.0803Z" fill="#CE0B10"/>
<g id="top-bun-and-seeeds">
<path id="top-bun" fill-rule="evenodd" clip-rule="evenodd" d="M25.6792 54.9067H174.546C177.211 54.9067 179.393 52.7171 179.393 50.0556C179.393 -16.6833 20.832 -16.6871 20.832 50.0556C20.832 52.721 23.0138 54.9067 25.6792 54.9067Z" fill="#E6A322"/>
<g id="seeds">
<path id="Vector_3" fill-rule="evenodd" clip-rule="evenodd" d="M103.571 12.2109C101.861 12.2109 100.477 13.5997 100.477 15.3135C100.477 17.0272 101.865 18.4082 103.579 18.4082C105.289 18.4082 106.674 17.0194 106.674 15.3057C106.674 13.5959 105.285 12.2109 103.571 12.2109Z" fill="#F4CF6B"/>
<path id="Vector_4" fill-rule="evenodd" clip-rule="evenodd" d="M118.396 21.0879C116.686 21.0879 115.301 22.4767 115.301 24.1904C115.301 25.9041 116.69 27.2852 118.403 27.2852C120.113 27.2852 121.498 25.8964 121.498 24.1827C121.498 22.4728 120.109 21.0879 118.396 21.0879Z" fill="#F4CF6B"/>
<path id="Vector_5" fill-rule="evenodd" clip-rule="evenodd" d="M120.942 7.34961C119.233 7.34961 117.848 8.7384 117.848 10.4521C117.848 12.162 119.236 13.5469 120.95 13.5469C122.66 13.5469 124.045 12.1581 124.045 10.4444C124.045 8.73065 122.656 7.34961 120.942 7.34961Z" fill="#F4CF6B"/>
<path id="Vector_6" fill-rule="evenodd" clip-rule="evenodd" d="M132.669 16.4922C130.959 16.4922 129.574 17.881 129.574 19.5908C129.574 21.3007 130.963 22.6856 132.677 22.6856C134.387 22.6856 135.772 21.2968 135.772 19.587C135.772 17.8771 134.383 16.4883 132.669 16.4922Z" fill="#F4CF6B"/>
<path id="Vector_7" fill-rule="evenodd" clip-rule="evenodd" d="M147.341 13.7832C145.631 13.7832 144.246 15.172 144.246 16.8857C144.246 18.5956 145.635 19.9805 147.349 19.9805C149.058 19.9805 150.443 18.5917 150.443 16.878C150.443 15.1681 149.055 13.7832 147.341 13.7832Z" fill="#F4CF6B"/>
<path id="Vector_8" fill-rule="evenodd" clip-rule="evenodd" d="M143.314 28.4688C141.604 28.4688 140.219 29.8575 140.219 31.5713C140.219 33.2811 141.608 34.666 143.317 34.666C145.027 34.666 146.412 33.2773 146.412 31.5635C146.412 29.8537 145.023 28.4649 143.314 28.4688Z" fill="#F4CF6B"/>
<path id="Vector_9" fill-rule="evenodd" clip-rule="evenodd" d="M161.091 26.1621C159.381 26.1621 157.996 27.5509 157.996 29.2646C157.996 30.9784 159.385 32.3594 161.099 32.3594C162.808 32.3594 164.193 30.9706 164.193 29.2569C164.193 27.547 162.805 26.1621 161.091 26.1621Z" fill="#F4CF6B"/>
<path id="Vector_10" fill-rule="evenodd" clip-rule="evenodd" d="M103.177 27.8359C101.467 27.8359 100.082 29.2247 100.082 30.9385C100.082 32.6483 101.471 34.0332 103.185 34.0332C104.894 34.0332 106.279 32.6444 106.279 30.9307C106.279 29.2209 104.891 27.8359 103.181 27.8359H103.177Z" fill="#F4CF6B"/>
<path id="Vector_11" fill-rule="evenodd" clip-rule="evenodd" d="M90.2276 4.54879C88.5177 4.54879 87.1328 5.93758 87.1328 7.64744C87.1328 9.35731 88.5216 10.7422 90.2353 10.7422C91.9452 10.7422 93.3301 9.35343 93.3301 7.6397C93.3301 5.92983 91.9413 4.54492 90.2276 4.54492V4.54879Z" fill="#F4CF6B"/>
<path id="Vector_12" fill-rule="evenodd" clip-rule="evenodd" d="M88.3604 20.0371C86.6505 20.0371 85.2656 21.4259 85.2656 23.1396C85.2656 24.8495 86.6544 26.2344 88.3681 26.2344C90.078 26.2344 91.4629 24.8456 91.4629 23.1319C91.4629 21.422 90.0741 20.0371 88.3604 20.0371Z" fill="#F4CF6B"/>
<path id="Vector_13" fill-rule="evenodd" clip-rule="evenodd" d="M75.2862 8.87305C73.5763 8.87305 72.1914 10.2618 72.1914 11.9756C72.1914 13.6854 73.5802 15.0703 75.2939 15.0703C77.0038 15.0703 78.3887 13.6816 78.3887 11.9717C78.3887 10.2618 76.9999 8.87305 75.2901 8.87692L75.2862 8.87305Z" fill="#F4CF6B"/>
<path id="Vector_14" fill-rule="evenodd" clip-rule="evenodd" d="M74.087 23.8242C72.3771 23.8242 70.9922 25.213 70.9922 26.9267C70.9922 28.6366 72.381 30.0215 74.0947 30.0215C75.8046 30.0215 77.1895 28.6327 77.1895 26.919C77.1895 25.2091 75.8007 23.8242 74.087 23.8242Z" fill="#F4CF6B"/>
<path id="Vector_15" fill-rule="evenodd" clip-rule="evenodd" d="M62.3604 15.2168C60.6505 15.2168 59.2656 16.6055 59.2656 18.3154C59.2656 20.0253 60.6544 21.4102 62.3681 21.4102C64.078 21.4102 65.4629 20.0214 65.4629 18.3077C65.4629 16.5978 64.0741 15.2129 62.3643 15.2129L62.3604 15.2168Z" fill="#F4CF6B"/>
<path id="Vector_16" fill-rule="evenodd" clip-rule="evenodd" d="M56.1729 27.6113C54.463 27.6113 53.0781 29.0001 53.0781 30.7139C53.0781 32.4237 54.4669 33.8086 56.1806 33.8086C57.8905 33.8086 59.2754 32.4198 59.2754 30.7061C59.2754 28.9962 57.8866 27.6113 56.1729 27.6113Z" fill="#F4CF6B"/>
<path id="Vector_17" fill-rule="evenodd" clip-rule="evenodd" d="M127.458 32.7363C125.748 32.7363 124.363 34.1251 124.363 35.8349C124.363 37.5448 125.752 38.9297 127.466 38.9297C129.176 38.9297 130.561 37.5409 130.561 35.8272C130.561 34.1173 129.172 32.7324 127.458 32.7324V32.7363Z" fill="#F4CF6B"/>
<path id="Vector_18" fill-rule="evenodd" clip-rule="evenodd" d="M87.5948 34.3906C85.8849 34.3906 84.5 35.7794 84.5 37.4931C84.5 39.203 85.8888 40.5879 87.6025 40.5879C89.3124 40.5879 90.6973 39.1991 90.6973 37.4893C90.6973 35.7794 89.3085 34.3945 87.5987 34.3945L87.5948 34.3906Z" fill="#F4CF6B"/>
<path id="Vector_19" fill-rule="evenodd" clip-rule="evenodd" d="M45.5596 17.7305C43.8498 17.7305 42.4648 19.1192 42.4648 20.833C42.4648 22.5428 43.8536 23.9277 45.5674 23.9277C47.2772 23.9277 48.6621 22.539 48.6621 20.8252C48.6621 19.1154 47.2734 17.7305 45.5635 17.7305H45.5596Z" fill="#F4CF6B"/>
</g>
</g>
<path id="Vector_20" fill-rule="evenodd" clip-rule="evenodd" d="M25.9429 133.154H174.283C180.14 133.154 184.933 128.361 184.933 122.504H15.293C15.293 128.361 20.086 133.154 25.9429 133.154Z" fill="#905504"/>
<path id="Vector_21" fill-rule="evenodd" clip-rule="evenodd" d="M22.9567 105.389H177.27C179.05 105.389 180.5 106.843 180.5 108.623C180.5 110.402 179.046 111.857 177.27 111.857H102.651L66.6279 128.244C64.4577 129.23 60.9064 129.23 58.7362 128.244L22.6859 111.845C21.9277 111.779 21.243 111.451 20.7246 110.952C20.1095 110.36 19.7266 109.536 19.7266 108.623C19.7266 106.843 21.1811 105.389 22.9606 105.389H22.9567Z" fill="#ECD100"/>
<path id="Vector_22" fill-rule="evenodd" clip-rule="evenodd" d="M20.832 94.8418H179.397V105.391H20.832V94.8418Z" fill="#E6A322"/>
<path id="Vector_23" fill-rule="evenodd" clip-rule="evenodd" d="M25.9429 94.8428H174.283C180.14 94.8428 184.933 90.0498 184.933 84.1929C184.933 78.336 180.14 73.543 174.283 73.543H25.9429C20.086 73.543 15.293 78.336 15.293 84.1929C15.293 90.0498 20.086 94.8428 25.9429 94.8428Z" fill="#844E03"/>
<path id="Vector_24" fill-rule="evenodd" clip-rule="evenodd" d="M25.9429 94.8413H174.283C180.14 94.8413 184.933 90.0483 184.933 84.1914H15.293C15.293 90.0483 20.086 94.8413 25.9429 94.8413Z" fill="#6E4103"/>
<path id="Vector_25" fill-rule="evenodd" clip-rule="evenodd" d="M22.9606 67.0801H177.274C179.053 67.0801 180.504 68.5346 180.504 70.3141C180.504 72.0936 179.05 73.5482 177.274 73.5482H22.9606C21.185 73.5482 19.7266 72.0936 19.7266 70.3141C19.7266 68.5346 21.1811 67.0801 22.9606 67.0801Z" fill="#24B54B"/>
</g>
<path id="beard" d="M180.223 94.7793C180.223 94.7793 174.459 105.479 170.077 109.961C165.694 114.442 154.039 123.173 154.039 123.173C154.039 123.173 146.772 115.876 143.265 114.085C139.758 112.293 129.358 115.108 128.356 112.93C127.354 110.753 135.123 111.52 135.123 111.52C135.123 111.52 128.984 108.575 126.352 107.937C123.721 107.295 113.073 106.913 108.311 108.835C103.549 110.757 102.046 112.93 102.046 112.93C102.046 112.93 100.981 119.522 102.046 121.062C103.111 122.598 106.054 124.52 111.881 123.559C117.709 122.598 123.531 126.823 131.241 126.823C138.951 126.823 139.32 122.405 143.08 120.869C146.84 119.334 153.791 125.481 153.791 125.481C153.791 125.481 155.105 127.924 154.356 131.188C153.602 134.453 150.031 140.021 147.4 139.465C144.768 138.905 146.271 134.071 144.019 135.414C141.762 136.756 142.326 144.246 138.007 150.393C133.683 156.54 117.898 157.883 114.138 156.729C110.378 155.575 107.562 155.405 108.311 149.069C109.065 142.734 116.58 142.555 116.58 142.555H84.1798C84.1798 142.555 91.695 142.729 92.4489 149.069C93.2029 155.405 90.3817 155.579 86.6216 156.729C82.8616 157.883 67.0774 156.536 62.7531 150.393C58.4288 144.246 58.9931 136.756 56.741 135.414C54.484 134.071 55.987 138.905 53.3603 139.465C50.7288 140.025 47.1585 134.458 46.4046 131.188C45.6506 127.924 46.9688 125.481 46.9688 125.481C46.9688 125.481 53.9246 119.334 57.6797 120.869C61.4397 122.405 61.8143 126.823 69.5192 126.823C77.2241 126.823 83.0513 122.598 88.8786 123.559C94.7059 124.52 97.6488 122.598 98.714 121.062C99.7793 119.527 98.714 112.93 98.714 112.93C98.714 112.93 97.211 110.753 92.4489 108.835C87.6869 106.918 77.0392 107.3 74.4077 107.937C71.7761 108.58 65.6375 111.52 65.6375 111.52C65.6375 111.52 73.4056 110.753 72.4036 112.93C71.4016 115.108 61.002 112.288 57.4949 114.085C53.9878 115.876 46.7207 123.173 46.7207 123.173C46.7207 123.173 35.071 114.442 30.6835 109.961C26.296 105.479 20.5368 94.7793 20.5368 94.7793C20.5368 94.7793 17.4042 138.997 20.5368 150.007C23.6693 161.017 33.0669 174.461 37.7025 179.198C42.3381 183.935 47.3482 186.881 47.3482 186.881V177.15C47.3482 177.15 49.4787 186.369 50.8553 188.417C52.2319 190.464 65.8905 196.355 65.8905 196.355L67.2671 189.315C67.2671 189.315 68.2691 194.694 70.2731 196.355C72.2771 198.021 76.2853 199.427 85.8094 199.557C95.3334 199.687 100.042 199.557 100.042 199.557V199.509L100.061 199.557C100.061 199.557 105.431 199.687 114.956 199.557C124.48 199.427 128.488 198.021 130.492 196.355C132.496 194.689 133.498 189.315 133.498 189.315L134.874 196.355C134.874 196.355 148.533 190.464 149.91 188.417C151.286 186.369 153.417 177.15 153.417 177.15V186.881C153.417 186.881 158.427 183.935 163.062 179.198C167.698 174.461 177.096 161.017 180.228 150.007C183.361 138.997 180.228 94.7793 180.228 94.7793H180.223Z" fill="#311A09"/>
</g>
</svg>
