<svg width="950" height="950" viewBox="0 0 950 950" fill="none" xmlns="http://www.w3.org/2000/svg">
<g clip-path="url(#clip0_4204_3827)">
<ellipse cx="474" cy="917" rx="322" ry="33" fill="#AEAEAE" fill-opacity="0.45"/>
<path d="M611.085 156.94C611.085 156.94 560.286 130.556 535.539 130.556C510.793 130.556 472.359 132.64 472.359 132.64C472.359 78.5523 412.372 4.66016 475.543 4.66016C538.713 4.66016 611.085 102.852 611.085 156.94Z" fill="black"/>
<path d="M491.263 32.7393C498.841 32.7393 508.888 36.0317 520.022 42.1152C531.041 48.1355 542.652 56.6289 553.235 66.4092C563.822 76.1928 573.254 87.1468 580.005 98.0225C585.034 106.125 588.431 113.955 589.859 121.08C586.923 120.048 583.273 118.812 579.219 117.546C569.342 114.461 556.713 111.075 546.114 110.11L545.095 110.025C537.87 109.469 528.791 109.886 521.682 110.413C518.842 110.624 516.276 110.855 514.21 111.058C513.287 101.66 510.103 92.2552 506.271 83.4883C501.714 73.0637 495.968 62.9688 491.582 54.6367C489.351 50.3986 487.478 46.6337 486.156 43.3545C484.805 40.0004 484.209 37.5749 484.185 35.9219C484.164 34.5032 484.533 34.1665 484.846 33.9375C485.502 33.4572 487.251 32.7393 491.263 32.7393Z" fill="#D54912" stroke="#FF6105" stroke-width="9.72"/>
<path d="M929.18 809.68C941.689 807.323 949.153 825.826 937.768 831.519C907.462 846.675 872.642 861.741 842.274 868.887C711.537 899.652 571.923 828.565 534.072 807.233C528.605 804.151 527.296 797.102 531.008 792.042L549.309 767.093C555.564 758.567 579.82 760.703 587.789 767.653C599.98 778.285 620.371 790.59 654.474 802.128C747.901 833.737 856.099 823.45 929.18 809.68Z" fill="#A33206"/>
<path d="M874.1 833.405C868.509 831.907 863.556 827.386 860.547 819.957C857.535 812.522 856.776 802.712 859.533 792.421C865.257 771.06 881.168 762.351 892.337 765.344C903.506 768.337 912.93 783.835 907.206 805.195C904.449 815.486 898.887 823.602 892.561 828.536C886.24 833.464 879.691 834.903 874.1 833.405Z" stroke="#FFC45D" stroke-width="19.2941"/>
<ellipse cx="884.526" cy="794.489" rx="29.7708" ry="40.8745" transform="rotate(-165 884.526 794.489)" fill="#FF995D"/>
<ellipse cx="881.435" cy="805.634" rx="27.832" ry="25.7852" transform="rotate(-165 881.435 805.634)" fill="#FF6105"/>
<path d="M884.051 763.241C898.462 759.854 911.341 771.305 911.967 795.015C912.578 818.208 898.452 837.525 883.646 841.005C868.841 844.484 853.875 832.005 853.263 808.812C852.676 786.52 868.494 766.898 884.051 763.241Z" stroke="black" stroke-width="15.3562"/>
<path d="M817.342 812.189C811.431 810.605 806.235 805.836 803.091 798.073C799.944 790.305 799.159 780.077 802.029 769.363C807.98 747.157 824.581 737.94 836.389 741.104C848.197 744.268 857.965 760.551 852.015 782.757C849.144 793.471 843.35 801.935 836.741 807.09C830.137 812.24 823.253 813.772 817.342 812.189Z" stroke="#FFC45D" stroke-width="19.2941"/>
<ellipse cx="828.212" cy="771.591" rx="30.8092" ry="42.3001" transform="rotate(-165 828.212 771.591)" fill="#FF995D"/>
<ellipse cx="825.007" cy="783.12" rx="28.8027" ry="26.6846" transform="rotate(-165 825.007 783.12)" fill="#FF6105"/>
<path d="M825.16 738.283C840.675 734.636 856.235 747.711 856.87 771.804C857.506 795.898 842.823 816.08 827.308 819.727C811.793 823.373 796.234 810.298 795.598 786.205C794.963 762.112 809.645 741.929 825.16 738.283Z" stroke="black" stroke-width="15.3562"/>
<path d="M757.115 787.795C751.008 786.159 745.663 781.236 742.435 773.269C739.205 765.296 738.403 754.811 741.344 743.836C747.434 721.11 764.46 711.581 776.661 714.85C788.862 718.119 798.841 734.885 792.752 757.611C789.811 768.586 783.874 777.265 777.091 782.555C770.312 787.841 763.222 789.431 757.115 787.795Z" stroke="#FFC45D" stroke-width="19.2941"/>
<ellipse cx="768.271" cy="746.165" rx="31.4479" ry="43.177" transform="rotate(-165 768.271 746.165)" fill="#FF995D"/>
<ellipse cx="764.999" cy="757.937" rx="29.3998" ry="27.2378" transform="rotate(-165 764.999 757.937)" fill="#FF6105"/>
<path d="M765.145 712.009C781.097 708.26 797.023 721.701 797.673 746.348C798.323 770.996 783.298 791.71 767.346 795.459C751.395 799.208 735.47 785.768 734.82 761.121C734.17 736.474 749.194 715.758 765.145 712.009Z" stroke="black" stroke-width="15.3562"/>
<path d="M892.549 810.929C903.135 813.921 902.848 827.62 891.977 829.3C846.352 836.355 767.152 841.217 691.226 810.169C586.908 767.511 531.7 704.231 464.087 632.473C459.997 628.132 460.175 621.293 464.504 617.189L503.477 580.243C508.121 575.84 515.567 576.379 519.615 581.336C540.932 607.443 605.089 682.273 674.663 726.948C729.101 761.904 835.546 794.818 892.549 810.929Z" fill="#FFAF69"/>
<path d="M871.404 809.725C881.298 811.499 882.38 824.026 872.665 826.61C830.243 837.894 754.234 850.905 678.443 828.039C575.719 797.048 518.141 741.454 447.951 678.918C443.901 675.31 443.492 669.113 447.048 665.017L481.836 624.941C485.708 620.48 492.598 620.334 496.711 624.573C518.84 647.377 586.05 713.389 655.992 749.725C711.071 778.34 816.376 799.86 871.404 809.725Z" fill="#FF6105"/>
<path d="M932.231 816.534C898.504 834.808 825.334 866.154 744.667 849.612L742.76 849.213C658.568 831.183 561.512 770.592 527.179 747.835L524.056 745.753C523.931 745.67 523.873 745.595 523.839 745.541C523.8 745.478 523.766 745.392 523.751 745.285C523.726 745.101 523.756 744.873 523.917 744.63L523.995 744.526L547.992 715.086C548.021 715.069 548.051 715.047 548.086 715.027C548.581 714.735 549.411 714.32 550.658 713.813C553.152 712.799 556.628 711.69 560.941 710.553C569.527 708.291 580.581 706.143 591.865 704.46C603.145 702.778 614.391 701.601 623.342 701.219C627.836 701.027 631.553 701.046 634.318 701.256C635.701 701.362 636.68 701.504 637.311 701.638C637.435 701.665 637.533 701.69 637.606 701.709C639.588 702.881 641.635 704.088 643.753 705.33L650.792 709.44C725.394 752.822 867.275 797.214 926.358 814.743L931.812 816.354C932.031 816.418 932.16 816.489 932.227 816.532C932.228 816.533 932.23 816.533 932.231 816.534Z" stroke="black" stroke-width="19.44"/>
<path d="M929.982 807.198C942.577 805.386 949.108 824.002 937.46 829.123C908.972 841.647 876.791 853.684 848.473 859.12C721.469 883.496 584.144 813.661 546.068 792.326C540.481 789.195 539.195 781.939 543.115 776.873L559.733 755.4C566.062 747.223 588.843 749.412 596.649 756.194C608.658 766.627 628.996 779.024 663.438 791.126C754.349 823.071 858.692 817.457 929.982 807.198Z" fill="#D54811"/>
<path d="M771.714 128.196C788.063 125.839 796.375 145.237 786.499 156.244C777.129 166.688 762.334 184.665 751.861 204.284C741.016 224.602 736.74 243.05 742.377 256.553L742.6 257.073C747.401 267.99 759.429 277.85 775.223 286.083C790.807 294.207 807.8 299.59 818.748 302.548L819.104 302.649C826.521 304.817 830.377 311.16 831.209 316.753C832.042 322.347 830.199 329.553 823.709 333.782L823.397 333.981C813.392 340.211 797.751 350.863 784.171 363.953C770.446 377.182 760.634 391.188 758.6 404.25L758.509 404.871C756.717 417.949 762.24 434.227 771.694 450.803C780.901 466.945 792.631 481.302 800.174 489.818L800.641 490.366C805.308 496.086 805.127 503.2 802.912 508.223C800.701 513.237 795.609 518.129 788.313 518.608L787.601 518.641C778.744 518.868 765.992 519.81 754.015 522.825C741.979 525.854 732.986 530.42 728.328 536.237L727.891 536.804C722.729 543.76 721.756 555.287 724.983 570.35C728.084 584.83 734.418 599.496 739.466 609.662L739.639 610.021C743.181 617.565 740.316 625 736.411 629.181C732.5 633.37 725.214 636.771 717.399 633.628L717.026 633.473C699.493 625.966 670.169 614.934 648.394 613.62L647.362 613.564C608.556 611.756 569.314 625.846 546.289 640.725L545.205 641.434C538.735 645.717 531.318 644.658 526.378 641.562C521.373 638.425 516.973 631.905 518.605 623.817L601.895 210.951L601.968 210.602C602.774 207.004 604.761 203.682 607.779 201.255L609.425 199.94C619.4 192.006 654.843 164.494 682.972 151.72L684.271 151.139C711.746 138.992 751.658 131.48 771.326 128.255L771.714 128.196Z" fill="#FF995D" stroke="black" stroke-width="24.84"/>
<path d="M607.527 229.125C607.7 228.133 608.197 227.247 608.968 226.601C615.837 220.843 651.467 191.465 678.948 178.235C703.888 166.23 742.127 157.892 761.872 154.118C765.954 153.338 768.668 158.335 765.963 161.489C747.485 183.036 707.298 236.008 723.943 272.181C737.314 301.237 785.688 315.838 808.377 321.214C812.337 322.152 813.358 327.886 809.953 330.116C789.785 343.323 746.801 375.197 743.118 409.033C739.484 442.406 773.559 482.495 789.572 499.308C792.315 502.187 790.2 507.405 786.229 507.624C767.858 508.638 732.358 513.076 718.947 531.978C703.023 554.424 720.536 594.041 731.484 614.302C733.535 618.097 729.323 622.984 725.299 621.428C707.575 614.572 676.059 603.795 652.157 603.38C610.427 602.656 569.181 618.8 545.286 635.314C541.913 637.645 536.912 634.731 537.615 630.693L607.527 229.125Z" fill="#FF6F0F"/>
<path d="M807.255 325.487C809.714 325.907 809.573 329.403 807.093 329.672C788.854 331.651 757.602 335.451 735.074 340.361C711.866 345.421 678.01 355.999 668.239 359.102C666.867 359.538 665.465 358.537 665.424 357.097L664.515 325.744C664.483 324.657 665.257 323.718 666.333 323.557C674.578 322.326 708.225 317.513 730.959 317.383C755.066 317.246 788.338 322.251 807.255 325.487Z" fill="#D54811"/>
<path d="M785.659 501.836C787.785 503.14 786.355 506.334 783.952 505.662C766.286 500.719 735.86 492.628 713.122 488.812C689.696 484.881 654.334 482.115 644.11 481.364C642.674 481.258 641.745 479.807 642.241 478.455L653.053 449.012C653.428 447.99 654.496 447.406 655.554 447.657C663.666 449.58 696.691 457.62 717.844 465.951C740.274 474.784 769.301 491.8 785.659 501.836Z" fill="#D54811"/>
<path d="M727.843 617.911C729.358 619.892 726.876 622.358 724.876 620.868C710.163 609.91 684.674 591.431 664.823 579.704C644.372 567.621 612.362 552.34 603.09 547.967C601.788 547.353 601.442 545.665 602.391 544.582L623.056 520.985C623.772 520.167 624.979 520.005 625.877 520.62C632.757 525.327 660.69 544.692 677.44 560.064C695.201 576.364 716.18 602.669 727.843 617.911Z" fill="#D54811"/>
<path d="M758.529 158.387C760.689 157.141 762.813 159.922 761.077 161.712C748.305 174.882 726.681 197.763 712.481 215.928C697.852 234.642 678.553 264.403 673.016 273.03C672.238 274.242 670.52 274.366 669.569 273.285L648.848 249.738C648.129 248.921 648.125 247.704 648.85 246.893C654.41 240.681 677.229 215.491 694.641 200.873C713.104 185.373 741.905 167.978 758.529 158.387Z" fill="#D54811"/>
<path d="M181.471 127.466C165.48 124.914 156.92 143.377 165.755 154.612L166.193 155.145C175.165 165.647 189.362 183.757 199.392 203.493C209.765 223.905 213.899 242.563 208.334 256.19L208.117 256.709C203.436 267.595 191.842 277.294 176.682 285.339C161.692 293.294 145.351 298.514 134.811 301.372L134.116 301.575C127.032 303.809 123.274 309.913 122.399 315.37C121.523 320.83 123.188 327.825 129.25 332.166L129.85 332.578C139.432 338.865 154.461 349.635 167.502 362.836C180.658 376.152 190.137 390.295 192.061 403.521L192.147 404.15C193.838 417.412 188.363 433.754 179.171 450.241C170.204 466.322 158.818 480.579 151.53 489C146.511 494.799 146.654 502.132 148.937 507.282C151.215 512.422 156.506 517.406 164.084 517.68C172.603 517.986 184.799 519.041 196.22 522.137C207.67 525.24 216.193 529.821 220.616 535.626L221.031 536.193C226.035 543.274 226.91 554.945 223.731 570.01C220.675 584.491 214.501 599.115 209.589 609.242L209.42 609.602C205.957 617.157 208.87 624.555 212.801 628.708C216.739 632.868 224.033 636.216 231.814 633.047L232.186 632.891C249.191 625.524 277.153 614.941 297.831 613.831L298.81 613.786C335.763 612.329 373.144 626.485 395.277 641.425L396.319 642.137C402.755 646.585 410.232 645.62 415.218 642.613C420.268 639.567 424.838 633.092 423.286 624.908L344.878 211.635L344.733 210.95C343.938 207.541 342.08 204.381 339.271 202.006L337.693 200.679C328.121 192.667 294.036 164.818 266.911 151.773L265.661 151.179C239.227 138.796 200.863 130.942 181.856 127.531L181.471 127.466Z" fill="#FF995D" stroke="black" stroke-width="24.84"/>
<path d="M338.91 229.712C338.751 228.736 338.279 227.859 337.537 227.204C330.941 221.388 296.727 191.71 270.296 178.247C246.387 166.07 209.727 157.423 190.656 153.463C186.611 152.623 183.843 157.516 186.459 160.719C204.161 182.396 242.721 235.747 226.505 271.795C213.491 300.724 166.819 314.91 144.915 320.094C141.003 321.021 139.941 326.642 143.258 328.93C162.605 342.274 204.009 374.554 207.415 408.464C210.773 441.908 177.656 481.763 162.171 498.396C159.492 501.274 161.597 506.417 165.527 506.679C183.262 507.863 217.35 512.623 230.167 531.599C245.408 554.163 228.383 593.586 217.739 613.763C215.732 617.567 219.974 622.416 223.981 620.851C241.155 614.144 271.34 603.771 294.233 603.562C334.211 603.197 373.654 619.485 396.678 636.094C400.03 638.512 405.144 635.654 404.48 631.579L338.91 229.712Z" fill="#FF6F0F"/>
<path d="M145.949 324.383C143.505 324.795 143.644 328.27 146.109 328.57C163.683 330.704 193.783 334.77 215.472 339.872C237.722 345.105 270.119 355.899 279.687 359.139C281.061 359.604 282.491 358.62 282.538 357.172L283.553 325.854C283.588 324.769 282.826 323.824 281.754 323.649C273.719 322.334 241.404 317.256 219.541 316.932C196.299 316.588 164.196 321.31 145.949 324.383Z" fill="#D54811"/>
<path d="M166.02 500.877C163.906 502.2 165.283 505.389 167.671 504.718C184.729 499.926 214.061 492.107 235.978 488.489C258.485 484.774 292.398 482.316 302.413 481.641C303.849 481.544 304.815 480.077 304.338 478.711L294.058 449.208C293.701 448.183 292.656 447.595 291.602 447.845C283.689 449.719 251.912 457.46 231.528 465.591C209.877 474.228 181.837 490.981 166.02 500.877Z" fill="#D54811"/>
<path d="M221.322 617.293C219.82 619.303 222.235 621.812 224.212 620.307C238.467 609.462 263.009 591.296 282.126 579.782C301.844 567.906 332.66 552.947 341.705 548.611C342.994 547.993 343.357 546.272 342.434 545.164L322.663 521.447C321.967 520.612 320.787 520.441 319.899 521.061C313.194 525.747 286.24 544.834 270.051 560.037C252.915 576.129 232.654 602.132 221.322 617.293Z" fill="#D54811"/>
<path d="M193.671 157.726C191.594 156.461 189.534 159.223 191.2 161.029C203.453 174.305 224.196 197.369 237.803 215.653C251.822 234.489 270.293 264.411 275.592 273.084C276.336 274.303 277.992 274.441 278.914 273.369L298.992 250.002C299.689 249.192 299.698 247.975 299.002 247.158C293.671 240.899 271.786 215.517 255.067 200.752C237.338 185.097 209.653 167.457 193.671 157.726Z" fill="#D54811"/>
<path d="M279.621 769.937C254.005 791.586 216.198 788.554 195.136 763.633C174.291 738.969 178.274 702.52 204.156 680.645C230.038 658.771 266.641 660.919 287.486 685.583C308.548 710.504 305.237 748.287 279.621 769.937Z" stroke="#FFC45D" stroke-width="20.0189"/>
<ellipse cx="236.905" cy="719.4" rx="61.1177" ry="62.3566" transform="rotate(139.797 236.905 719.4)" fill="#FF995D"/>
<ellipse cx="233.145" cy="714.947" rx="60.403" ry="56.5199" transform="rotate(139.797 233.145 714.947)" fill="#FF6105"/>
<path d="M284.791 776.061C258.271 798.473 218.604 795.145 196.191 768.626C173.778 742.107 177.107 702.439 203.626 680.026C230.145 657.613 269.813 660.942 292.226 687.462C314.638 713.981 311.309 753.648 284.791 776.061Z" stroke="black" stroke-width="21.6"/>
<g filter="url(#filter0_d_4204_3827)">
<path d="M208.53 682.395C201.363 673.245 202.101 659.899 210.049 651.5L335.487 518.959C344.142 509.814 358.175 509.814 366.83 518.959L436.449 592.52C445.104 601.665 445.104 616.493 436.449 625.639L311.011 758.18C303.063 766.578 290.432 767.358 281.773 759.785C270.112 749.587 254.203 735.233 242.985 723.379C231.766 711.525 218.181 694.715 208.53 682.395Z" fill="black"/>
</g>
<path d="M735.628 768.438C710.203 790.311 672.371 787.611 651.091 762.876C630.03 738.396 633.692 701.914 659.381 679.813C685.07 657.712 721.69 659.538 742.751 684.018C764.031 708.753 761.053 746.564 735.628 768.438Z" stroke="#FFC45D" stroke-width="20.0189"/>
<ellipse cx="692.474" cy="718.277" rx="61.1177" ry="62.3566" transform="rotate(139.294 692.474 718.277)" fill="#FF995D"/>
<ellipse cx="688.67" cy="713.857" rx="60.403" ry="56.5199" transform="rotate(139.294 688.67 713.857)" fill="#FF6105"/>
<path d="M740.857 774.513C714.536 797.158 674.841 794.178 652.195 767.857C629.55 741.536 632.531 701.84 658.852 679.195C685.173 656.55 724.869 659.531 747.513 685.852C770.158 712.173 767.178 751.868 740.857 774.513Z" stroke="black" stroke-width="21.6"/>
<g filter="url(#filter1_d_4204_3827)">
<path d="M733.214 677.518C740.083 668.748 739.376 655.957 731.758 647.907L611.531 520.872C603.236 512.107 589.786 512.107 581.49 520.872L514.764 591.377C506.468 600.143 506.468 614.354 514.764 623.12L634.99 750.155C642.608 758.204 654.714 758.952 663.014 751.693C674.19 741.92 689.438 728.161 700.19 716.8C710.943 705.438 723.964 689.327 733.214 677.518Z" fill="black"/>
</g>
<rect x="386.441" y="615.4" width="176.04" height="230.04" fill="black"/>
<path d="M309.915 526.83C311.048 512.207 323.245 500.92 337.911 500.92H611.016C625.682 500.92 637.878 512.207 639.012 526.83L667.058 888.63C668.323 904.944 655.426 918.88 639.062 918.88H536.341C521.351 918.88 508.991 907.134 508.145 892.168C504.142 821.408 491.872 634.409 473.923 633C455.99 631.592 446.914 820.026 444.113 891.686C443.52 906.854 431.074 918.88 415.894 918.88H309.864C293.501 918.88 280.604 904.944 281.868 888.63L309.915 526.83Z" fill="black"/>
<path d="M475.004 733.121L361.831 558.971L588.176 558.971L475.004 733.121Z" fill="white"/>
<g filter="url(#filter2_d_4204_3827)">
<g filter="url(#filter3_d_4204_3827)">
<path d="M520.365 129.401C520.365 129.401 492.771 127.125 475.005 127.125C457.238 127.125 429.645 129.401 429.645 129.401C429.645 70.3506 429.651 0.880859 475.005 0.880859C520.358 0.880859 520.365 70.3506 520.365 129.401Z" fill="black"/>
</g>
<path d="M474.717 112.102C606.222 112.102 712.317 216.309 712.317 344.231C712.317 471.702 606.692 570.021 474.717 570.021C342.742 570.021 237.117 471.702 237.117 344.231C237.117 216.309 343.212 112.102 474.717 112.102Z" stroke="#FFC45D" stroke-width="27"/>
<ellipse cx="474.72" cy="338.901" rx="243.54" ry="221.94" fill="#FF995D"/>
<ellipse cx="474.72" cy="364.823" rx="247.478" ry="225.18" fill="#FF6105"/>
<path d="M714.954 404.797C714.954 487.959 583.607 583.521 475.227 583.521C366.847 583.521 235.5 487.959 235.5 404.797C235.5 321.635 369.344 304.881 475.227 304.881C581.11 304.881 714.954 321.635 714.954 404.797Z" fill="url(#paint0_radial_4204_3827)"/>
<path d="M474.723 91.04C612.541 91.0403 723.662 199.921 723.662 333.5C723.662 467.079 612.541 575.96 474.723 575.96C336.905 575.96 225.782 467.079 225.782 333.5C225.782 199.921 336.905 91.04 474.723 91.04Z" stroke="black" stroke-width="28.08"/>
<path d="M475.004 25.1807C479.121 25.1807 482.395 27.1719 485.248 31.7139C488.23 36.4619 490.428 43.5841 491.944 52.623C494.725 69.1988 494.959 90.4708 494.979 111.061C493.917 110.96 492.739 110.854 491.485 110.747C486.466 110.319 480.085 109.878 475.004 109.878C469.923 109.878 463.543 110.319 458.523 110.747C457.269 110.854 456.09 110.96 455.027 111.061C455.047 90.4708 455.282 69.1988 458.063 52.623C459.58 43.5839 461.778 36.4619 464.761 31.7139C467.614 27.172 470.887 25.1807 475.004 25.1807Z" fill="#FF995D" stroke="#FFC45D" stroke-width="9.72"/>
</g>
<path d="M443.786 326.674C444.178 331.628 428.398 327.017 398.879 329.6C369.359 332.182 354.52 339.472 354.129 334.518C353.737 329.565 367.942 314.245 397.462 311.662C426.981 309.079 443.395 321.721 443.786 326.674Z" fill="black"/>
<path d="M449.977 307.424C449.977 341.665 432.218 369.424 397.977 369.424C363.735 369.424 345.977 341.665 345.977 307.424C345.977 273.182 363.735 245.424 397.977 245.424C432.218 245.424 449.977 273.182 449.977 307.424Z" fill="black"/>
<circle cx="416.742" cy="291" r="17" fill="white"/>
<path d="M598.01 335.514C597.597 340.465 582.836 333.116 553.282 330.402C523.728 327.688 507.975 332.235 508.387 327.283C508.8 322.332 525.222 309.757 554.776 312.471C584.331 315.185 598.423 330.562 598.01 335.514Z" fill="black"/>
<path d="M605.164 306.945C605.164 341.028 587.535 368.656 553.453 368.656C519.371 368.656 501.742 341.028 501.742 306.945C501.742 272.863 519.371 245.234 553.453 245.234C587.535 245.234 605.164 272.863 605.164 306.945Z" fill="black"/>
<circle cx="573.242" cy="290.5" r="16.5" fill="white"/>
<circle cx="475.001" cy="769.839" r="14.04" fill="url(#paint1_radial_4204_3827)"/>
<circle cx="474.742" cy="694" r="9" fill="black"/>
<circle cx="474.742" cy="658" r="9" fill="black"/>
<circle cx="474.462" cy="609.38" r="18.9" fill="black"/>
<path d="M474.5 605.85C474.5 607.66 473.371 609.279 471.671 609.904L422.311 628.061C419.491 629.099 416.5 627.012 416.5 624.007L416.5 567.76C416.5 564.941 419.157 562.877 421.888 563.574L471.248 576.17C473.161 576.658 474.5 578.382 474.5 580.356L474.5 605.85Z" fill="black"/>
<path d="M474.5 605.832C474.5 607.651 475.64 609.276 477.351 609.895L527.711 628.106C530.527 629.124 533.5 627.038 533.5 624.043L533.5 567.557C533.5 564.802 530.956 562.751 528.264 563.335L477.904 574.261C475.917 574.692 474.5 576.45 474.5 578.483L474.5 605.832Z" fill="black"/>
<path d="M435.742 420.961C442.924 439.338 456.976 449.226 475.645 449.038C494.052 448.853 507.661 439.08 514.742 420.961" stroke="black" stroke-width="23.28" stroke-linecap="round"/>
</g>
<defs>
<filter id="filter0_d_4204_3827" x="188.47" y="512.1" width="256.632" height="279.906" filterUnits="userSpaceOnUse" color-interpolation-filters="sRGB">
<feFlood flood-opacity="0" result="BackgroundImageFix"/>
<feColorMatrix in="SourceAlpha" type="matrix" values="0 0 0 0 0 0 0 0 0 0 0 0 0 0 0 0 0 0 127 0" result="hardAlpha"/>
<feOffset dx="-6.48" dy="18.36"/>
<feGaussianBlur stdDeviation="4.32"/>
<feComposite in2="hardAlpha" operator="out"/>
<feColorMatrix type="matrix" values="0 0 0 0 0 0 0 0 0 0 0 0 0 0 0 0 0 0 0.25 0"/>
<feBlend mode="normal" in2="BackgroundImageFix" result="effect1_dropShadow_4204_3827"/>
<feBlend mode="normal" in="SourceGraphic" in2="effect1_dropShadow_4204_3827" result="shape"/>
</filter>
<filter id="filter1_d_4204_3827" x="503.143" y="514.299" width="248.846" height="270.478" filterUnits="userSpaceOnUse" color-interpolation-filters="sRGB">
<feFlood flood-opacity="0" result="BackgroundImageFix"/>
<feColorMatrix in="SourceAlpha" type="matrix" values="0 0 0 0 0 0 0 0 0 0 0 0 0 0 0 0 0 0 127 0" result="hardAlpha"/>
<feOffset dx="4.32" dy="18.36"/>
<feGaussianBlur stdDeviation="4.86"/>
<feComposite in2="hardAlpha" operator="out"/>
<feColorMatrix type="matrix" values="0 0 0 0 0 0 0 0 0 0 0 0 0 0 0 0 0 0 0.25 0"/>
<feBlend mode="normal" in2="BackgroundImageFix" result="effect1_dropShadow_4204_3827"/>
<feBlend mode="normal" in="SourceGraphic" in2="effect1_dropShadow_4204_3827" result="shape"/>
</filter>
<filter id="filter2_d_4204_3827" x="202.022" y="0.880859" width="577.801" height="640.961" filterUnits="userSpaceOnUse" color-interpolation-filters="sRGB">
<feFlood flood-opacity="0" result="BackgroundImageFix"/>
<feColorMatrix in="SourceAlpha" type="matrix" values="0 0 0 0 0 0 0 0 0 0 0 0 0 0 0 0 0 0 127 0" result="hardAlpha"/>
<feOffset dx="16.2" dy="25.92"/>
<feGaussianBlur stdDeviation="12.96"/>
<feComposite in2="hardAlpha" operator="out"/>
<feColorMatrix type="matrix" values="0 0 0 0 0 0 0 0 0 0 0 0 0 0 0 0 0 0 0.35 0"/>
<feBlend mode="normal" in2="BackgroundImageFix" result="effect1_dropShadow_4204_3827"/>
<feBlend mode="normal" in="SourceGraphic" in2="effect1_dropShadow_4204_3827" result="shape"/>
</filter>
<filter id="filter3_d_4204_3827" x="429.645" y="0.880859" width="116.639" height="153.36" filterUnits="userSpaceOnUse" color-interpolation-filters="sRGB">
<feFlood flood-opacity="0" result="BackgroundImageFix"/>
<feColorMatrix in="SourceAlpha" type="matrix" values="0 0 0 0 0 0 0 0 0 0 0 0 0 0 0 0 0 0 127 0" result="hardAlpha"/>
<feOffset dx="21.6" dy="20.52"/>
<feGaussianBlur stdDeviation="2.16"/>
<feComposite in2="hardAlpha" operator="out"/>
<feColorMatrix type="matrix" values="0 0 0 0 0 0 0 0 0 0 0 0 0 0 0 0 0 0 0.25 0"/>
<feBlend mode="normal" in2="BackgroundImageFix" result="effect1_dropShadow_4204_3827"/>
<feBlend mode="normal" in="SourceGraphic" in2="effect1_dropShadow_4204_3827" result="shape"/>
</filter>
<radialGradient id="paint0_radial_4204_3827" cx="0" cy="0" r="1" gradientUnits="userSpaceOnUse" gradientTransform="translate(475.771 397.292) rotate(90.1672) scale(186.23 293.287)">
<stop stop-color="white"/>
<stop offset="0.767013" stop-color="white"/>
<stop offset="0.769271" stop-color="#C8C8C8"/>
</radialGradient>
<radialGradient id="paint1_radial_4204_3827" cx="0" cy="0" r="1" gradientUnits="userSpaceOnUse" gradientTransform="translate(472.742 765.5) rotate(66.6148) scale(20.1556 17.7711)">
<stop stop-color="white"/>
<stop offset="0.652506" stop-color="white"/>
<stop offset="1" stop-color="#434343"/>
</radialGradient>
<clipPath id="clip0_4204_3827">
<rect width="950" height="950" fill="white"/>
</clipPath>
</defs>
</svg>
