<svg width="1081" height="1080" viewBox="0 0 1081 1080" fill="none" xmlns="http://www.w3.org/2000/svg">
<g clip-path="url(#clip0_4173_3808)">
<ellipse cx="539.72" cy="988.2" rx="374.22" ry="36.72" fill="#E7DABA"/>
<path d="M676.343 221.94C676.343 221.94 625.544 195.556 600.797 195.556C576.051 195.556 537.617 197.64 537.617 197.64C537.617 143.552 477.63 69.6602 540.801 69.6602C603.971 69.6602 676.343 167.852 676.343 221.94Z" fill="black"/>
<path d="M556.521 97.7393C564.098 97.7393 574.146 101.032 585.28 107.115C596.299 113.136 607.91 121.629 618.493 131.409C629.08 141.193 638.512 152.147 645.263 163.022C650.292 171.125 653.689 178.955 655.117 186.08C652.181 185.048 648.531 183.812 644.477 182.546C634.6 179.461 621.971 176.075 611.372 175.11L610.353 175.025C603.128 174.469 594.049 174.886 586.939 175.413C584.1 175.624 581.533 175.855 579.468 176.058C578.545 166.66 575.361 157.255 571.528 148.488C566.971 138.064 561.226 127.969 556.84 119.637C554.609 115.399 552.735 111.634 551.414 108.354C550.063 105 549.467 102.575 549.442 100.922C549.421 99.5032 549.791 99.1665 550.104 98.9375C550.76 98.4572 552.508 97.7393 556.521 97.7393Z" fill="#D54912" stroke="#FF6105" stroke-width="9.72"/>
<path d="M994.438 874.68C1006.95 872.323 1014.41 890.826 1003.03 896.519C972.72 911.675 937.9 926.741 907.532 933.887C776.795 964.652 637.181 893.565 599.33 872.233C593.863 869.151 592.554 862.102 596.266 857.042L614.567 832.093C620.821 823.567 645.078 825.703 653.047 832.653C665.238 843.285 685.629 855.59 719.732 867.128C813.159 898.737 921.357 888.45 994.438 874.68Z" fill="#A33206"/>
<path d="M939.354 898.405C933.763 896.907 928.81 892.386 925.8 884.957C922.789 877.522 922.03 867.712 924.787 857.421C930.511 836.06 946.421 827.351 957.591 830.344C968.76 833.337 978.184 848.835 972.46 870.195C969.703 880.486 964.141 888.602 957.815 893.536C951.494 898.464 944.945 899.903 939.354 898.405Z" stroke="#FFC45D" stroke-width="19.2941"/>
<ellipse cx="949.78" cy="859.489" rx="29.7708" ry="40.8745" transform="rotate(-165 949.78 859.489)" fill="#FF995D"/>
<ellipse cx="946.685" cy="870.632" rx="27.832" ry="25.7852" transform="rotate(-165 946.685 870.632)" fill="#FF6105"/>
<path d="M949.301 828.241C963.712 824.854 976.591 836.305 977.217 860.015C977.828 883.208 963.702 902.525 948.896 906.005C934.091 909.484 919.125 897.005 918.513 873.812C917.926 851.52 933.744 831.898 949.301 828.241Z" stroke="black" stroke-width="15.3562"/>
<path d="M882.592 877.187C876.681 875.603 871.485 870.834 868.341 863.071C865.194 855.303 864.409 845.075 867.279 834.361C873.23 812.155 889.831 802.938 901.639 806.102C913.447 809.266 923.215 825.549 917.265 847.755C914.394 858.469 908.6 866.933 901.991 872.088C895.387 877.238 888.503 878.77 882.592 877.187Z" stroke="#FFC45D" stroke-width="19.2941"/>
<ellipse cx="893.466" cy="836.589" rx="30.8092" ry="42.3001" transform="rotate(-165 893.466 836.589)" fill="#FF995D"/>
<ellipse cx="890.261" cy="848.12" rx="28.8027" ry="26.6846" transform="rotate(-165 890.261 848.12)" fill="#FF6105"/>
<path d="M890.41 803.283C905.925 799.636 921.485 812.711 922.12 836.804C922.756 860.898 908.073 881.08 892.558 884.727C877.043 888.373 861.484 875.298 860.848 851.205C860.213 827.112 874.895 806.929 890.41 803.283Z" stroke="black" stroke-width="15.3562"/>
<path d="M822.365 852.793C816.258 851.157 810.913 846.235 807.685 838.267C804.455 830.294 803.653 819.809 806.594 808.834C812.684 786.108 829.71 776.579 841.911 779.848C854.112 783.117 864.091 799.883 858.002 822.609C855.061 833.584 849.124 842.263 842.341 847.553C835.562 852.839 828.472 854.429 822.365 852.793Z" stroke="#FFC45D" stroke-width="19.2941"/>
<ellipse cx="833.517" cy="811.163" rx="31.4479" ry="43.177" transform="rotate(-165 833.517 811.163)" fill="#FF995D"/>
<ellipse cx="830.245" cy="822.935" rx="29.3998" ry="27.2378" transform="rotate(-165 830.245 822.935)" fill="#FF6105"/>
<path d="M830.395 777.007C846.347 773.258 862.273 786.699 862.923 811.347C863.573 835.994 848.548 856.708 832.596 860.457C816.645 864.206 800.72 850.766 800.07 826.119C799.42 801.472 814.444 780.756 830.395 777.007Z" stroke="black" stroke-width="15.3562"/>
<path d="M957.807 875.929C968.393 878.921 968.106 892.62 957.235 894.3C911.61 901.355 832.41 906.217 756.483 875.169C652.166 832.511 596.958 769.231 529.345 697.473C525.254 693.132 525.433 686.293 529.762 682.189L568.735 645.243C573.379 640.84 580.825 641.379 584.873 646.336C606.19 672.443 670.347 747.273 739.921 791.948C794.359 826.904 900.803 859.818 957.807 875.929Z" fill="#FFAF69"/>
<path d="M936.662 874.723C946.556 876.497 947.637 889.024 937.923 891.608C895.501 902.892 819.492 915.903 743.701 893.037C640.977 862.046 583.399 806.452 513.209 743.916C509.159 740.308 508.75 734.111 512.305 730.015L547.094 689.939C550.966 685.478 557.855 685.332 561.969 689.571C584.098 712.375 651.308 778.387 721.25 814.723C776.329 843.338 881.633 864.859 936.662 874.723Z" fill="#FF6105"/>
<path d="M997.489 881.532C963.762 899.806 890.592 931.153 809.924 914.61L808.018 914.211C723.826 896.181 626.77 835.59 592.437 812.833L589.314 810.752C589.189 810.668 589.13 810.593 589.097 810.539C589.058 810.476 589.024 810.39 589.009 810.283C588.984 810.099 589.014 809.871 589.175 809.628L589.253 809.524L613.25 780.084C613.279 780.067 613.309 780.045 613.344 780.025C613.839 779.733 614.669 779.318 615.916 778.811C618.41 777.797 621.885 776.688 626.199 775.552C634.785 773.289 645.838 771.141 657.123 769.458C668.403 767.776 679.649 766.599 688.6 766.217C693.094 766.025 696.811 766.044 699.576 766.254C700.959 766.36 701.938 766.502 702.569 766.636C702.693 766.663 702.791 766.688 702.864 766.707C704.846 767.879 706.893 769.086 709.011 770.328L716.05 774.438C790.652 817.82 932.533 862.212 991.616 879.741L997.07 881.352C997.289 881.416 997.418 881.487 997.485 881.53C997.486 881.531 997.488 881.531 997.489 881.532Z" stroke="black" stroke-width="19.44"/>
<path d="M995.24 872.198C1007.83 870.386 1014.37 889.002 1002.72 894.123C974.23 906.647 942.049 918.684 913.73 924.12C786.727 948.496 649.402 878.661 611.326 857.326C605.738 854.195 604.453 846.939 608.373 841.873L624.991 820.4C631.32 812.223 654.101 814.412 661.907 821.194C673.916 831.627 694.254 844.024 728.696 856.126C819.607 888.071 923.95 882.457 995.24 872.198Z" fill="#D54811"/>
<path d="M836.971 193.196C853.064 190.876 861.37 209.632 852.21 220.719L851.757 221.244C842.387 231.688 827.592 249.665 817.119 269.284C806.274 289.602 801.998 308.05 807.635 321.553L807.858 322.073C812.659 332.99 824.687 342.85 840.481 351.083C856.065 359.207 873.058 364.59 884.007 367.548L884.362 367.649C891.779 369.817 895.634 376.16 896.467 381.753C897.3 387.347 895.457 394.553 888.967 398.782L888.655 398.981C878.65 405.211 863.009 415.863 849.429 428.953C835.704 442.182 825.891 456.188 823.858 469.25L823.766 469.871C821.974 482.949 827.498 499.227 836.952 515.803C846.159 531.945 857.889 546.302 865.431 554.818L865.898 555.366C870.566 561.086 870.385 568.2 868.17 573.223C865.959 578.237 860.867 583.129 853.571 583.608L852.858 583.641C844.002 583.868 831.25 584.81 819.273 587.825C807.237 590.854 798.244 595.42 793.586 601.237L793.149 601.804C787.987 608.76 787.014 620.287 790.24 635.35C793.342 649.83 799.675 664.496 804.724 674.662L804.897 675.021C808.439 682.565 805.573 690 801.669 694.181C797.758 698.37 790.472 701.771 782.657 698.628L782.284 698.473C764.751 690.966 735.427 679.934 713.652 678.62L712.62 678.564C673.814 676.756 634.572 690.846 611.547 705.725L610.463 706.434C603.992 710.717 596.576 709.658 591.635 706.562C586.631 703.425 582.231 696.905 583.863 688.817L667.153 275.951L667.226 275.602C668.032 272.004 670.018 268.682 673.037 266.255L674.683 264.94C684.658 257.006 720.101 229.494 748.23 216.72L749.529 216.139C777.004 203.992 816.916 196.48 836.584 193.255L836.971 193.196Z" fill="#FF995D" stroke="black" stroke-width="24.84"/>
<path d="M672.785 294.125C672.958 293.133 673.454 292.247 674.226 291.601C681.094 285.843 716.724 256.465 744.205 243.235C769.145 231.23 807.384 222.892 827.13 219.118C831.211 218.338 833.926 223.335 831.221 226.489C812.742 248.036 772.555 301.008 789.201 337.181C802.572 366.237 850.945 380.838 873.635 386.214C877.595 387.152 878.616 392.886 875.211 395.116C855.043 408.323 812.059 440.197 808.375 474.033C804.742 507.406 838.817 547.495 854.83 564.308C857.573 567.187 855.458 572.405 851.487 572.624C833.116 573.638 797.616 578.076 784.205 596.978C768.281 619.424 785.794 659.041 796.741 679.302C798.792 683.097 794.581 687.984 790.557 686.428C772.833 679.572 741.317 668.795 717.415 668.38C675.685 667.656 634.439 683.8 610.543 700.314C607.171 702.645 602.17 699.731 602.873 695.693L672.785 294.125Z" fill="#FF6F0F"/>
<path d="M872.513 390.488C874.971 390.909 874.83 394.405 872.35 394.674C854.112 396.653 822.86 400.453 800.332 405.363C777.123 410.423 743.267 421.001 733.497 424.104C732.125 424.54 730.723 423.538 730.682 422.099L729.772 390.746C729.741 389.659 730.515 388.72 731.591 388.559C739.836 387.328 773.483 382.515 796.217 382.385C820.323 382.248 853.596 387.253 872.513 390.488Z" fill="#D54811"/>
<path d="M850.917 566.838C853.043 568.142 851.612 571.336 849.21 570.664C831.543 565.72 801.118 557.629 778.379 553.814C754.954 549.882 719.591 547.117 709.368 546.366C707.931 546.26 707.003 544.809 707.499 543.457L718.311 514.014C718.686 512.992 719.753 512.408 720.812 512.659C728.924 514.582 761.949 522.622 783.102 530.953C805.531 539.786 834.559 556.802 850.917 566.838Z" fill="#D54811"/>
<path d="M793.1 682.911C794.616 684.892 792.134 687.358 790.134 685.868C775.421 674.91 749.931 656.431 730.08 644.704C709.629 632.621 677.62 617.34 668.348 612.967C667.045 612.353 666.7 610.665 667.649 609.582L688.313 585.985C689.03 585.167 690.237 585.005 691.135 585.62C698.014 590.327 725.948 609.692 742.698 625.064C760.459 641.364 781.438 667.669 793.1 682.911Z" fill="#D54811"/>
<path d="M823.786 223.389C825.947 222.143 828.071 224.923 826.335 226.714C813.563 239.884 791.939 262.765 777.739 280.93C763.109 299.644 743.811 329.405 738.274 338.032C737.496 339.244 735.778 339.368 734.826 338.287L714.105 314.74C713.387 313.923 713.383 312.706 714.108 311.895C719.667 305.683 742.487 280.493 759.899 265.875C778.362 250.375 807.163 232.979 823.786 223.389Z" fill="#D54811"/>
<path d="M246.721 192.466C230.73 189.914 222.17 208.377 231.005 219.612L231.443 220.145C240.415 230.647 254.612 248.757 264.642 268.493C275.015 288.905 279.149 307.563 273.584 321.19L273.367 321.709C268.686 332.595 257.092 342.294 241.932 350.339C226.943 358.294 210.602 363.514 200.062 366.372L200.061 366.372L199.366 366.575C192.282 368.809 188.524 374.913 187.649 380.37C186.773 385.83 188.438 392.825 194.5 397.166L195.1 397.578C204.682 403.865 219.711 414.635 232.752 427.836C245.908 441.152 255.387 455.295 257.311 468.521L257.397 469.15C259.088 482.412 253.613 498.754 244.421 515.241C235.454 531.322 224.068 545.579 216.78 554L216.325 554.547C211.772 560.255 211.975 567.292 214.187 572.282C216.394 577.261 221.428 582.095 228.631 582.64L229.334 582.68C237.853 582.986 250.049 584.041 261.47 587.137C272.92 590.24 281.443 594.821 285.866 600.626L286.281 601.193C291.285 608.274 292.16 619.945 288.981 635.01C285.925 649.491 279.751 664.115 274.839 674.242L274.67 674.602C271.207 682.157 274.12 689.555 278.051 693.708C281.989 697.868 289.283 701.216 297.064 698.047L297.436 697.891C314.441 690.524 342.403 679.941 363.081 678.831L364.06 678.786C401.013 677.329 438.394 691.485 460.527 706.425L461.569 707.137C468.005 711.585 475.482 710.62 480.468 707.613C485.518 704.567 490.088 698.092 488.536 689.908L410.128 276.635L409.983 275.95C409.188 272.541 407.33 269.381 404.521 267.006L402.943 265.679C393.371 257.667 359.286 229.818 332.161 216.773L330.911 216.179C304.477 203.797 266.114 195.942 247.107 192.531L246.721 192.466Z" fill="#FF995D" stroke="black" stroke-width="24.84"/>
<path d="M404.16 294.712C404.001 293.736 403.529 292.859 402.787 292.204C396.191 286.388 361.977 256.71 335.546 243.247C311.637 231.07 274.977 222.423 255.906 218.463C251.861 217.623 249.093 222.516 251.709 225.719C269.411 247.396 307.971 300.747 291.755 336.795C278.741 365.724 232.069 379.91 210.165 385.094C206.253 386.021 205.191 391.642 208.508 393.93C227.855 407.274 269.259 439.554 272.665 473.464C276.023 506.908 242.906 546.763 227.421 563.396C224.742 566.274 226.847 571.417 230.777 571.679C248.512 572.863 282.6 577.623 295.417 596.599C310.658 619.163 293.633 658.586 282.989 678.763C280.982 682.567 285.224 687.416 289.231 685.851C306.405 679.144 336.59 668.771 359.483 668.562C399.461 668.197 438.904 684.485 461.928 701.094C465.28 703.512 470.394 700.654 469.73 696.579L404.16 294.712Z" fill="#FF6F0F"/>
<path d="M211.203 389.383C208.759 389.795 208.898 393.27 211.363 393.57C228.937 395.704 259.037 399.77 280.726 404.872C302.976 410.105 335.373 420.899 344.941 424.139C346.315 424.604 347.745 423.62 347.792 422.172L348.807 390.854C348.842 389.769 348.08 388.824 347.008 388.649C338.973 387.334 306.658 382.256 284.794 381.932C261.553 381.588 229.45 386.31 211.203 389.383Z" fill="#D54811"/>
<path d="M231.274 565.877C229.16 567.2 230.537 570.389 232.925 569.718C249.983 564.926 279.315 557.107 301.232 553.489C323.739 549.774 357.652 547.316 367.667 546.641C369.103 546.544 370.068 545.077 369.592 543.71L359.312 514.208C358.954 513.183 357.91 512.595 356.856 512.845C348.943 514.719 317.165 522.46 296.782 530.591C275.131 539.228 247.091 555.981 231.274 565.877Z" fill="#D54811"/>
<path d="M286.572 682.293C285.07 684.303 287.485 686.812 289.462 685.307C303.717 674.462 328.259 656.296 347.376 644.782C367.094 632.906 397.91 617.947 406.955 613.611C408.244 612.993 408.607 611.272 407.684 610.164L387.913 586.447C387.217 585.612 386.037 585.441 385.149 586.061C378.444 590.747 351.49 609.834 335.301 625.037C318.165 641.129 297.904 667.132 286.572 682.293Z" fill="#D54811"/>
<path d="M258.921 222.726C256.844 221.461 254.784 224.223 256.45 226.029C268.703 239.305 289.446 262.369 303.053 280.653C317.072 299.489 335.543 329.411 340.842 338.084C341.586 339.303 343.242 339.441 344.164 338.369L364.242 315.002C364.939 314.192 364.948 312.975 364.252 312.158C358.921 305.899 337.036 280.517 320.317 265.752C302.588 250.097 274.903 232.457 258.921 222.726Z" fill="#D54811"/>
<path d="M800.886 833.438C775.461 855.311 737.629 852.611 716.349 827.876C695.288 803.396 698.95 766.914 724.639 744.813C750.328 722.712 786.948 724.538 808.009 749.018C829.289 773.753 826.311 811.564 800.886 833.438Z" stroke="#FFC45D" stroke-width="20.0189"/>
<ellipse cx="757.732" cy="783.277" rx="61.1177" ry="62.3566" transform="rotate(139.294 757.732 783.277)" fill="#FF995D"/>
<ellipse cx="753.928" cy="778.857" rx="60.403" ry="56.5199" transform="rotate(139.294 753.928 778.857)" fill="#FF6105"/>
<path d="M806.115 839.513C779.794 862.158 740.098 859.178 717.453 832.857C694.808 806.536 697.789 766.84 724.11 744.195C750.431 721.55 790.126 724.531 812.771 750.852C835.416 777.173 832.436 816.868 806.115 839.513Z" stroke="black" stroke-width="21.6"/>
<path d="M344.879 834.937C319.263 856.586 281.456 853.554 260.394 828.633C239.549 803.969 243.532 767.52 269.414 745.645C295.296 723.771 331.899 725.919 352.744 750.583C373.806 775.504 370.495 813.287 344.879 834.937Z" stroke="#FFC45D" stroke-width="20.0189"/>
<ellipse cx="302.163" cy="784.4" rx="61.1177" ry="62.3566" transform="rotate(139.797 302.163 784.4)" fill="#FF995D"/>
<ellipse cx="298.403" cy="779.947" rx="60.403" ry="56.5199" transform="rotate(139.797 298.403 779.947)" fill="#FF6105"/>
<path d="M350.048 841.061C323.529 863.473 283.862 860.145 261.449 833.626C239.036 807.107 242.365 767.439 268.884 745.026C295.403 722.613 335.071 725.942 357.484 752.462C379.896 778.981 376.567 818.648 350.048 841.061Z" stroke="black" stroke-width="21.6"/>
<g filter="url(#filter0_d_4173_3808)">
<path d="M273.788 747.395C266.62 738.245 267.359 724.899 275.307 716.5L400.745 583.959C409.4 574.814 423.433 574.814 432.088 583.959L501.707 657.52C510.362 666.665 510.362 681.493 501.707 690.639L376.269 823.18C368.321 831.578 355.69 832.358 347.03 824.785C335.37 814.587 319.461 800.233 308.243 788.379C297.024 776.525 283.439 759.715 273.788 747.395Z" fill="black"/>
</g>
<g filter="url(#filter1_d_4173_3808)">
<path d="M798.14 742.163C805.009 733.393 804.302 720.601 796.683 712.551L676.457 585.517C668.161 576.751 654.711 576.751 646.416 585.517L579.689 656.022C571.394 664.787 571.394 678.999 579.689 687.764L699.916 814.799C707.534 822.849 719.64 823.596 727.94 816.338C739.116 806.564 754.364 792.806 765.116 781.444C775.869 770.083 788.89 753.971 798.14 742.163Z" fill="black"/>
</g>
<rect x="451.699" y="680.4" width="176.04" height="230.04" fill="black"/>
<path d="M375.173 591.83C376.306 577.207 388.502 565.92 403.169 565.92H676.274C690.94 565.92 703.136 577.207 704.27 591.83L732.316 953.63C733.581 969.944 720.684 983.88 704.32 983.88H601.599C586.609 983.88 574.249 972.134 573.402 957.168C569.4 886.408 557.129 699.409 539.181 698C521.248 696.592 512.172 885.026 509.37 956.686C508.777 971.854 496.332 983.88 481.152 983.88H375.122C358.759 983.88 345.862 969.944 347.126 953.63L375.173 591.83Z" fill="black"/>
<path d="M540.261 798.121L427.089 623.971L653.434 623.971L540.261 798.121Z" fill="white"/>
<g filter="url(#filter2_d_4173_3808)">
<path d="M585.622 194.401C585.622 194.401 558.029 192.125 540.262 192.125C522.496 192.125 494.902 194.401 494.902 194.401C494.902 135.351 494.909 65.8809 540.262 65.8809C585.616 65.8809 585.622 135.351 585.622 194.401Z" fill="black"/>
</g>
<g filter="url(#filter3_d_4173_3808)">
<path d="M539.717 176.58C671.222 176.58 777.317 280.787 777.317 408.71C777.317 536.18 671.692 634.5 539.717 634.5C407.742 634.5 302.117 536.18 302.117 408.71C302.117 280.787 408.212 176.58 539.717 176.58Z" stroke="#FFC45D" stroke-width="27"/>
<ellipse cx="539.72" cy="403.379" rx="243.54" ry="221.94" fill="#FF995D"/>
<ellipse cx="539.72" cy="429.301" rx="247.478" ry="225.18" fill="#FF6105"/>
<path d="M779.954 469.276C779.954 552.438 648.607 647.999 540.227 647.999C431.847 647.999 300.5 552.438 300.5 469.276C300.5 386.114 434.344 369.359 540.227 369.359C646.11 369.359 779.954 386.114 779.954 469.276Z" fill="url(#paint0_radial_4173_3808)"/>
<path d="M539.723 155.519C677.541 155.519 788.662 264.4 788.662 397.979C788.662 531.557 677.541 640.438 539.723 640.438C401.905 640.438 290.782 531.557 290.782 397.979C290.782 264.4 401.905 155.519 539.723 155.519Z" stroke="black" stroke-width="28.08"/>
</g>
<path d="M540.262 90.1807C544.379 90.1807 547.653 92.1719 550.506 96.7139C553.488 101.462 555.686 108.584 557.202 117.623C559.983 134.199 560.217 155.471 560.237 176.061C559.175 175.96 557.997 175.854 556.743 175.747C551.724 175.319 545.343 174.878 540.262 174.878C535.181 174.878 528.8 175.319 523.781 175.747C522.527 175.854 521.348 175.96 520.285 176.061C520.305 155.471 520.54 134.199 523.321 117.623C524.838 108.584 527.036 101.462 530.019 96.7139C532.871 92.172 536.145 90.1807 540.262 90.1807Z" fill="#FF995D" stroke="#FFC45D" stroke-width="9.72"/>
<circle cx="450" cy="372" r="62" fill="black"/>
<circle cx="469.141" cy="365.524" r="20.907" fill="white"/>
<circle cx="628.711" cy="371.945" r="61.7111" fill="black"/>
<circle cx="648.474" cy="365.28" r="20.8095" fill="white"/>
<circle cx="540.259" cy="834.839" r="14.04" fill="url(#paint1_radial_4173_3808)"/>
<circle cx="540" cy="759" r="9" fill="black"/>
<circle cx="540" cy="723" r="9" fill="black"/>
<circle cx="539.72" cy="674.38" r="18.9" fill="black"/>
<path d="M539.758 670.85C539.758 672.66 538.629 674.279 536.929 674.904L487.569 693.061C484.749 694.099 481.758 692.012 481.758 689.007L481.758 632.76C481.758 629.941 484.414 627.877 487.146 628.574L536.506 641.17C538.419 641.658 539.758 643.382 539.758 645.356L539.758 670.85Z" fill="black"/>
<path d="M539.758 670.832C539.758 672.651 540.898 674.276 542.609 674.895L592.969 693.106C595.785 694.124 598.758 692.038 598.758 689.043L598.758 632.557C598.758 629.802 596.214 627.751 593.522 628.335L543.162 639.261C541.175 639.692 539.758 641.45 539.758 643.483V670.832Z" fill="black"/>
<path d="M500 484C507.182 501.016 521.234 510.171 539.903 509.998C558.31 509.826 571.919 500.777 579 484" stroke="black" stroke-width="23.28" stroke-linecap="round"/>
</g>
<defs>
<filter id="filter0_d_4173_3808" x="253.728" y="577.1" width="256.632" height="279.906" filterUnits="userSpaceOnUse" color-interpolation-filters="sRGB">
<feFlood flood-opacity="0" result="BackgroundImageFix"/>
<feColorMatrix in="SourceAlpha" type="matrix" values="0 0 0 0 0 0 0 0 0 0 0 0 0 0 0 0 0 0 127 0" result="hardAlpha"/>
<feOffset dx="-6.48" dy="18.36"/>
<feGaussianBlur stdDeviation="4.32"/>
<feComposite in2="hardAlpha" operator="out"/>
<feColorMatrix type="matrix" values="0 0 0 0 0 0 0 0 0 0 0 0 0 0 0 0 0 0 0.25 0"/>
<feBlend mode="normal" in2="BackgroundImageFix" result="effect1_dropShadow_4173_3808"/>
<feBlend mode="normal" in="SourceGraphic" in2="effect1_dropShadow_4173_3808" result="shape"/>
</filter>
<filter id="filter1_d_4173_3808" x="568.069" y="578.943" width="248.846" height="270.478" filterUnits="userSpaceOnUse" color-interpolation-filters="sRGB">
<feFlood flood-opacity="0" result="BackgroundImageFix"/>
<feColorMatrix in="SourceAlpha" type="matrix" values="0 0 0 0 0 0 0 0 0 0 0 0 0 0 0 0 0 0 127 0" result="hardAlpha"/>
<feOffset dx="4.32" dy="18.36"/>
<feGaussianBlur stdDeviation="4.86"/>
<feComposite in2="hardAlpha" operator="out"/>
<feColorMatrix type="matrix" values="0 0 0 0 0 0 0 0 0 0 0 0 0 0 0 0 0 0 0.25 0"/>
<feBlend mode="normal" in2="BackgroundImageFix" result="effect1_dropShadow_4173_3808"/>
<feBlend mode="normal" in="SourceGraphic" in2="effect1_dropShadow_4173_3808" result="shape"/>
</filter>
<filter id="filter2_d_4173_3808" x="494.902" y="65.8809" width="116.639" height="153.36" filterUnits="userSpaceOnUse" color-interpolation-filters="sRGB">
<feFlood flood-opacity="0" result="BackgroundImageFix"/>
<feColorMatrix in="SourceAlpha" type="matrix" values="0 0 0 0 0 0 0 0 0 0 0 0 0 0 0 0 0 0 127 0" result="hardAlpha"/>
<feOffset dx="21.6" dy="20.52"/>
<feGaussianBlur stdDeviation="2.16"/>
<feComposite in2="hardAlpha" operator="out"/>
<feColorMatrix type="matrix" values="0 0 0 0 0 0 0 0 0 0 0 0 0 0 0 0 0 0 0.25 0"/>
<feBlend mode="normal" in2="BackgroundImageFix" result="effect1_dropShadow_4173_3808"/>
<feBlend mode="normal" in="SourceGraphic" in2="effect1_dropShadow_4173_3808" result="shape"/>
</filter>
<filter id="filter3_d_4173_3808" x="267.022" y="141.479" width="577.801" height="564.842" filterUnits="userSpaceOnUse" color-interpolation-filters="sRGB">
<feFlood flood-opacity="0" result="BackgroundImageFix"/>
<feColorMatrix in="SourceAlpha" type="matrix" values="0 0 0 0 0 0 0 0 0 0 0 0 0 0 0 0 0 0 127 0" result="hardAlpha"/>
<feOffset dx="16.2" dy="25.92"/>
<feGaussianBlur stdDeviation="12.96"/>
<feComposite in2="hardAlpha" operator="out"/>
<feColorMatrix type="matrix" values="0 0 0 0 0 0 0 0 0 0 0 0 0 0 0 0 0 0 0.35 0"/>
<feBlend mode="normal" in2="BackgroundImageFix" result="effect1_dropShadow_4173_3808"/>
<feBlend mode="normal" in="SourceGraphic" in2="effect1_dropShadow_4173_3808" result="shape"/>
</filter>
<radialGradient id="paint0_radial_4173_3808" cx="0" cy="0" r="1" gradientUnits="userSpaceOnUse" gradientTransform="translate(540.771 461.77) rotate(90.1672) scale(186.23 293.287)">
<stop stop-color="white"/>
<stop offset="0.767013" stop-color="white"/>
<stop offset="0.769271" stop-color="#C8C8C8"/>
</radialGradient>
<radialGradient id="paint1_radial_4173_3808" cx="0" cy="0" r="1" gradientUnits="userSpaceOnUse" gradientTransform="translate(538 830.5) rotate(66.6148) scale(20.1556 17.7711)">
<stop stop-color="white"/>
<stop offset="0.652506" stop-color="white"/>
<stop offset="1" stop-color="#434343"/>
</radialGradient>
<clipPath id="clip0_4173_3808">
<rect width="1080" height="1080" fill="white" transform="translate(0.257812)"/>
</clipPath>
</defs>
</svg>
