<svg width="1081" height="1080" viewBox="0 0 1081 1080" fill="none" xmlns="http://www.w3.org/2000/svg">
<g id="DragonBot" clip-path="url(#clip0_4173_3808)">
<rect width="1080" height="1080" transform="translate(0.257812)" fill="#FFFBF1"/>
<ellipse id="Ellipse 191" cx="539.72" cy="988.2" rx="374.22" ry="36.72" fill="#E7DABA"/>
<path id="Ellipse 186" d="M676.343 221.94C676.343 221.94 625.544 195.556 600.797 195.556C576.051 195.556 537.617 197.64 537.617 197.64C537.617 143.552 477.63 69.6602 540.801 69.6602C603.971 69.6602 676.343 167.852 676.343 221.94Z" fill="black"/>
<g id="horn">
<mask id="path-3-inside-1_4173_3808" fill="white">
<path d="M660.741 193.319C660.741 193.319 630.426 181.445 609.979 179.871C596.299 178.817 574.879 181.439 574.879 181.439C574.879 140.749 521.426 92.8789 556.52 92.8789C591.615 92.8789 660.741 152.629 660.741 193.319Z"/>
</mask>
<path d="M660.741 193.319C660.741 193.319 630.426 181.445 609.979 179.871C596.299 178.817 574.879 181.439 574.879 181.439C574.879 140.749 521.426 92.8789 556.52 92.8789C591.615 92.8789 660.741 152.629 660.741 193.319Z" fill="#D54912" stroke="#FF6105" stroke-width="19.44" mask="url(#path-3-inside-1_4173_3808)"/>
</g>
<g id="tail">
<path id="Polygon 17" d="M994.438 874.68C1006.95 872.323 1014.41 890.826 1003.03 896.519C972.72 911.675 937.9 926.741 907.532 933.887C776.795 964.652 637.181 893.565 599.33 872.233C593.863 869.151 592.554 862.102 596.266 857.042L614.567 832.093C620.821 823.567 645.078 825.703 653.047 832.653C665.238 843.285 685.629 855.59 719.732 867.128C813.159 898.737 921.357 888.45 994.438 874.68Z" fill="#A33206"/>
<g id=" ball group">
<g id="ball">
<g id="head-lt-yel">
<mask id="path-5-inside-2_4173_3808" fill="white">
<path d="M915.469 854.924C921.968 830.67 941.776 816.119 960.087 821.026C978.398 825.932 988.278 848.438 981.779 872.692C975.28 896.946 955.168 912.63 936.857 907.724C918.546 902.817 908.97 879.178 915.469 854.924Z"/>
</mask>
<path d="M915.469 854.924C921.968 830.67 941.776 816.119 960.087 821.026C978.398 825.932 988.278 848.438 981.779 872.692C975.28 896.946 955.168 912.63 936.857 907.724C918.546 902.817 908.97 879.178 915.469 854.924Z" stroke="#FFC45D" stroke-width="38.5883" mask="url(#path-5-inside-2_4173_3808)"/>
</g>
<ellipse id="head-md-org" cx="949.78" cy="859.489" rx="29.7708" ry="40.8745" transform="rotate(-165 949.78 859.489)" fill="#FF995D"/>
<ellipse id="head-org-dk" cx="946.685" cy="870.632" rx="27.832" ry="25.7852" transform="rotate(-165 946.685 870.632)" fill="#FF6105"/>
<g id="head-black">
<mask id="path-8-inside-3_4173_3808" fill="white">
<path d="M984.691 858.259C985.372 884.087 969.437 908.9 949.099 913.68C928.76 918.46 911.721 901.398 911.039 875.569C910.358 849.741 928.76 825.346 949.099 820.566C969.437 815.786 984.01 832.431 984.691 858.259Z"/>
</mask>
<path d="M984.691 858.259C985.372 884.087 969.437 908.9 949.099 913.68C928.76 918.46 911.721 901.398 911.039 875.569C910.358 849.741 928.76 825.346 949.099 820.566C969.437 815.786 984.01 832.431 984.691 858.259Z" stroke="black" stroke-width="30.7123" mask="url(#path-8-inside-3_4173_3808)"/>
</g>
</g>
<g id="ball_2">
<g id="head-lt-yel_2">
<mask id="path-9-inside-4_4173_3808" fill="white">
<path d="M857.961 831.864C864.686 806.764 885.186 791.706 904.136 796.784C923.085 801.861 933.309 825.152 926.584 850.252C919.858 875.352 899.044 891.583 880.095 886.505C861.145 881.428 851.235 856.964 857.961 831.864Z"/>
</mask>
<path d="M857.961 831.864C864.686 806.764 885.186 791.706 904.136 796.784C923.085 801.861 933.309 825.152 926.584 850.252C919.858 875.352 899.044 891.583 880.095 886.505C861.145 881.428 851.235 856.964 857.961 831.864Z" stroke="#FFC45D" stroke-width="38.5883" mask="url(#path-9-inside-4_4173_3808)"/>
</g>
<ellipse id="head-md-org_2" cx="893.466" cy="836.589" rx="30.8092" ry="42.3001" transform="rotate(-165 893.466 836.589)" fill="#FF995D"/>
<ellipse id="head-org-dk_2" cx="890.261" cy="848.12" rx="28.8027" ry="26.6846" transform="rotate(-165 890.261 848.12)" fill="#FF6105"/>
<g id="head-black_2">
<mask id="path-12-inside-5_4173_3808" fill="white">
<path d="M929.595 835.048C930.3 861.777 913.809 887.455 892.761 892.402C871.713 897.349 854.079 879.691 853.374 852.962C852.669 826.233 869.16 800.554 890.208 795.607C911.256 790.661 928.89 808.318 929.595 835.048Z"/>
</mask>
<path d="M929.595 835.048C930.3 861.777 913.809 887.455 892.761 892.402C871.713 897.349 854.079 879.691 853.374 852.962C852.669 826.233 869.16 800.554 890.208 795.607C911.256 790.661 928.89 808.318 929.595 835.048Z" stroke="black" stroke-width="30.7123" mask="url(#path-12-inside-5_4173_3808)"/>
</g>
</g>
<g id="ball_3">
<g id="head-lt-yel_3">
<mask id="path-13-inside-6_4173_3808" fill="white">
<path d="M797.275 806.338C804.14 780.718 825.065 765.347 844.407 770.53C863.75 775.713 874.186 799.486 867.321 825.107C860.456 850.727 839.21 867.295 819.868 862.112C800.525 856.929 790.41 831.958 797.275 806.338Z"/>
</mask>
<path d="M797.275 806.338C804.14 780.718 825.065 765.347 844.407 770.53C863.75 775.713 874.186 799.486 867.321 825.107C860.456 850.727 839.21 867.295 819.868 862.112C800.525 856.929 790.41 831.958 797.275 806.338Z" stroke="#FFC45D" stroke-width="38.5883" mask="url(#path-13-inside-6_4173_3808)"/>
</g>
<ellipse id="head-md-org_3" cx="833.517" cy="811.163" rx="31.4479" ry="43.177" transform="rotate(-165 833.517 811.163)" fill="#FF995D"/>
<ellipse id="head-org-dk_3" cx="830.245" cy="822.935" rx="29.3998" ry="27.2378" transform="rotate(-165 830.245 822.935)" fill="#FF6105"/>
<g id="head-black_3">
<mask id="path-16-inside-7_4173_3808" fill="white">
<path d="M870.397 809.59C871.116 836.873 854.283 863.083 832.799 868.133C811.315 873.182 793.316 855.158 792.596 827.875C791.876 800.592 808.709 774.381 830.193 769.332C851.678 764.282 869.677 782.306 870.397 809.59Z"/>
</mask>
<path d="M870.397 809.59C871.116 836.873 854.283 863.083 832.799 868.133C811.315 873.182 793.316 855.158 792.596 827.875C791.876 800.592 808.709 774.381 830.193 769.332C851.678 764.282 869.677 782.306 870.397 809.59Z" stroke="black" stroke-width="30.7123" mask="url(#path-16-inside-7_4173_3808)"/>
</g>
</g>
</g>
<path id="Polygon 16" d="M957.807 875.929C968.393 878.921 968.106 892.62 957.235 894.3C911.61 901.355 832.41 906.217 756.483 875.169C652.166 832.511 596.958 769.231 529.345 697.473C525.254 693.132 525.433 686.293 529.762 682.189L568.735 645.243C573.379 640.84 580.825 641.379 584.873 646.336C606.19 672.443 670.347 747.273 739.921 791.948C794.359 826.904 900.803 859.818 957.807 875.929Z" fill="#FFAF69"/>
<path id="Polygon 14" d="M936.662 874.723C946.556 876.497 947.637 889.024 937.923 891.608C895.501 902.892 819.492 915.903 743.701 893.037C640.977 862.046 583.399 806.452 513.209 743.916C509.159 740.308 508.75 734.111 512.305 730.015L547.094 689.939C550.966 685.478 557.855 685.332 561.969 689.571C584.098 712.375 651.308 778.387 721.25 814.723C776.329 843.338 881.633 864.859 936.662 874.723Z" fill="#FF6105"/>
<g id="Polygon 15">
<mask id="path-19-inside-8_4173_3808" fill="white">
<path d="M999.814 872.027C1008.57 874.604 1010.16 885.72 1002.13 890.07C967.437 908.871 890.812 941.882 805.982 923.715C717.036 904.667 615.016 839.665 583.904 818.827C578.709 815.347 577.767 808.23 581.718 803.383L606.101 773.47C613.892 763.911 696.781 751.819 707.395 758.096C711.595 760.58 716.101 763.223 720.937 766.035C796.735 810.113 944.219 855.67 999.814 872.027Z"/>
</mask>
<path d="M999.814 872.027C1008.57 874.604 1010.16 885.72 1002.13 890.07C967.437 908.871 890.812 941.882 805.982 923.715C717.036 904.667 615.016 839.665 583.904 818.827C578.709 815.347 577.767 808.23 581.718 803.383L606.101 773.47C613.892 763.911 696.781 751.819 707.395 758.096C711.595 760.58 716.101 763.223 720.937 766.035C796.735 810.113 944.219 855.67 999.814 872.027Z" stroke="black" stroke-width="38.88" mask="url(#path-19-inside-8_4173_3808)"/>
</g>
<path id="Polygon 13" d="M995.24 872.198C1007.83 870.386 1014.37 889.002 1002.72 894.123C974.23 906.647 942.049 918.684 913.73 924.12C786.727 948.496 649.402 878.661 611.326 857.326C605.738 854.195 604.453 846.939 608.373 841.873L624.991 820.4C631.32 812.223 654.101 814.412 661.907 821.194C673.916 831.627 694.254 844.024 728.696 856.126C819.607 888.071 923.95 882.457 995.24 872.198Z" fill="#D54811"/>
</g>
<g id="wing-r">
<g id="Rectangle 1202">
<mask id="path-21-outside-9_4173_3808" maskUnits="userSpaceOnUse" x="568.702" y="168.152" width="350.404" height="568.044" fill="black">
<rect fill="white" x="568.702" y="168.152" width="350.404" height="568.044"/>
<path d="M679.327 278.407C679.524 277.429 680.04 276.561 680.818 275.936C687.876 270.263 725.018 240.902 753.365 228.029C779.183 216.305 818.529 208.801 838.593 205.512C842.682 204.841 845.28 209.867 842.513 212.95C823.242 234.428 780.297 288.304 796.174 326.337C808.931 356.896 858.062 373.404 880.766 379.539C884.675 380.595 885.526 386.298 882.089 388.438C861.378 401.335 816.262 433.151 811.462 468.184C806.728 502.729 840.507 545.409 856.134 563.052C858.759 566.016 856.498 571.124 852.54 571.225C833.958 571.701 797.447 575.17 783.175 594.403C766.212 617.261 783.118 659.079 793.599 680.185C795.517 684.046 791.135 688.752 787.172 687.055C769.444 679.465 737.575 667.293 713.198 666.157C670.785 664.182 628.348 679.698 603.607 696.078C600.178 698.348 595.224 695.304 596.037 691.273L679.327 278.407Z"/>
</mask>
<path d="M679.327 278.407C679.524 277.429 680.04 276.561 680.818 275.936C687.876 270.263 725.018 240.902 753.365 228.029C779.183 216.305 818.529 208.801 838.593 205.512C842.682 204.841 845.28 209.867 842.513 212.95C823.242 234.428 780.297 288.304 796.174 326.337C808.931 356.896 858.062 373.404 880.766 379.539C884.675 380.595 885.526 386.298 882.089 388.438C861.378 401.335 816.262 433.151 811.462 468.184C806.728 502.729 840.507 545.409 856.134 563.052C858.759 566.016 856.498 571.124 852.54 571.225C833.958 571.701 797.447 575.17 783.175 594.403C766.212 617.261 783.118 659.079 793.599 680.185C795.517 684.046 791.135 688.752 787.172 687.055C769.444 679.465 737.575 667.293 713.198 666.157C670.785 664.182 628.348 679.698 603.607 696.078C600.178 698.348 595.224 695.304 596.037 691.273L679.327 278.407Z" fill="#FF995D"/>
<path d="M679.327 278.407C679.524 277.429 680.04 276.561 680.818 275.936C687.876 270.263 725.018 240.902 753.365 228.029C779.183 216.305 818.529 208.801 838.593 205.512C842.682 204.841 845.28 209.867 842.513 212.95C823.242 234.428 780.297 288.304 796.174 326.337C808.931 356.896 858.062 373.404 880.766 379.539C884.675 380.595 885.526 386.298 882.089 388.438C861.378 401.335 816.262 433.151 811.462 468.184C806.728 502.729 840.507 545.409 856.134 563.052C858.759 566.016 856.498 571.124 852.54 571.225C833.958 571.701 797.447 575.17 783.175 594.403C766.212 617.261 783.118 659.079 793.599 680.185C795.517 684.046 791.135 688.752 787.172 687.055C769.444 679.465 737.575 667.293 713.198 666.157C670.785 664.182 628.348 679.698 603.607 696.078C600.178 698.348 595.224 695.304 596.037 691.273L679.327 278.407Z" stroke="black" stroke-width="49.68" mask="url(#path-21-outside-9_4173_3808)"/>
</g>
<path id="Rectangle 1204" d="M672.785 294.125C672.958 293.133 673.454 292.247 674.226 291.601C681.094 285.843 716.724 256.465 744.205 243.235C769.145 231.23 807.384 222.892 827.13 219.118C831.211 218.338 833.926 223.335 831.221 226.489C812.742 248.036 772.555 301.008 789.201 337.181C802.572 366.237 850.945 380.838 873.635 386.214C877.595 387.152 878.616 392.886 875.211 395.116C855.043 408.323 812.059 440.197 808.375 474.033C804.742 507.406 838.817 547.495 854.83 564.308C857.573 567.187 855.458 572.405 851.487 572.624C833.116 573.638 797.616 578.076 784.205 596.978C768.281 619.424 785.794 659.041 796.741 679.302C798.792 683.097 794.581 687.984 790.557 686.428C772.833 679.572 741.317 668.795 717.415 668.38C675.685 667.656 634.439 683.8 610.543 700.314C607.171 702.645 602.17 699.731 602.873 695.693L672.785 294.125Z" fill="#FF6F0F"/>
<path id="vein" d="M872.513 390.488C874.971 390.909 874.83 394.405 872.35 394.674C854.112 396.653 822.86 400.453 800.332 405.363C777.123 410.423 743.267 421.001 733.497 424.104C732.125 424.54 730.723 423.538 730.682 422.099L729.772 390.746C729.741 389.659 730.515 388.72 731.591 388.559C739.836 387.328 773.483 382.515 796.217 382.385C820.323 382.248 853.596 387.253 872.513 390.488Z" fill="#D54811"/>
<path id="vein_2" d="M850.917 566.838C853.043 568.142 851.612 571.336 849.21 570.664C831.543 565.72 801.118 557.629 778.379 553.814C754.954 549.882 719.591 547.117 709.368 546.366C707.931 546.26 707.003 544.809 707.499 543.457L718.311 514.014C718.686 512.992 719.753 512.408 720.812 512.659C728.924 514.582 761.949 522.622 783.102 530.953C805.531 539.786 834.559 556.802 850.917 566.838Z" fill="#D54811"/>
<path id="vein_3" d="M793.1 682.911C794.616 684.892 792.134 687.358 790.134 685.868C775.421 674.91 749.931 656.431 730.08 644.704C709.629 632.621 677.62 617.34 668.348 612.967C667.045 612.353 666.7 610.665 667.649 609.582L688.313 585.985C689.03 585.167 690.237 585.005 691.135 585.62C698.014 590.327 725.948 609.692 742.698 625.064C760.459 641.364 781.438 667.669 793.1 682.911Z" fill="#D54811"/>
<path id="vein_4" d="M823.786 223.389C825.947 222.143 828.071 224.923 826.335 226.714C813.563 239.884 791.939 262.765 777.739 280.93C763.109 299.644 743.811 329.405 738.274 338.032C737.496 339.244 735.778 339.368 734.826 338.287L714.105 314.74C713.387 313.923 713.383 312.706 714.108 311.895C719.667 305.683 742.487 280.493 759.899 265.875C778.362 250.375 807.163 232.979 823.786 223.389Z" fill="#D54811"/>
</g>
<g id="wing-l">
<g id="Rectangle 1202_2">
<mask id="path-27-outside-10_4173_3808" maskUnits="userSpaceOnUse" x="166.374" y="169.41" width="337.098" height="565.499" fill="black">
<rect fill="white" x="166.374" y="169.41" width="337.098" height="565.499"/>
<path d="M397.925 278.94C397.743 277.978 397.253 277.118 396.505 276.486C389.728 270.755 354.054 241.078 326.785 227.964C302.033 216.061 264.307 208.234 244.923 204.756C240.869 204.028 238.208 208.952 240.884 212.084C259.347 233.695 300.567 287.976 285.084 325.893C272.655 356.33 225.243 372.415 203.322 378.359C199.461 379.406 198.561 385 201.908 387.196C221.778 400.233 265.239 432.471 269.718 467.59C274.133 502.216 241.29 544.666 226.175 562.131C223.611 565.094 225.852 570.127 229.771 570.268C247.714 570.915 282.779 574.719 296.424 594.032C312.663 617.017 296.215 658.642 286.016 679.67C284.139 683.54 288.542 688.205 292.489 686.495C309.675 679.049 340.206 667.297 363.56 666.376C404.201 664.773 444.787 680.445 468.626 696.923C472.033 699.278 477.104 696.281 476.332 692.213L397.925 278.94Z"/>
</mask>
<path d="M397.925 278.94C397.743 277.978 397.253 277.118 396.505 276.486C389.728 270.755 354.054 241.078 326.785 227.964C302.033 216.061 264.307 208.234 244.923 204.756C240.869 204.028 238.208 208.952 240.884 212.084C259.347 233.695 300.567 287.976 285.084 325.893C272.655 356.33 225.243 372.415 203.322 378.359C199.461 379.406 198.561 385 201.908 387.196C221.778 400.233 265.239 432.471 269.718 467.59C274.133 502.216 241.29 544.666 226.175 562.131C223.611 565.094 225.852 570.127 229.771 570.268C247.714 570.915 282.779 574.719 296.424 594.032C312.663 617.017 296.215 658.642 286.016 679.67C284.139 683.54 288.542 688.205 292.489 686.495C309.675 679.049 340.206 667.297 363.56 666.376C404.201 664.773 444.787 680.445 468.626 696.923C472.033 699.278 477.104 696.281 476.332 692.213L397.925 278.94Z" fill="#FF995D"/>
<path d="M397.925 278.94C397.743 277.978 397.253 277.118 396.505 276.486C389.728 270.755 354.054 241.078 326.785 227.964C302.033 216.061 264.307 208.234 244.923 204.756C240.869 204.028 238.208 208.952 240.884 212.084C259.347 233.695 300.567 287.976 285.084 325.893C272.655 356.33 225.243 372.415 203.322 378.359C199.461 379.406 198.561 385 201.908 387.196C221.778 400.233 265.239 432.471 269.718 467.59C274.133 502.216 241.29 544.666 226.175 562.131C223.611 565.094 225.852 570.127 229.771 570.268C247.714 570.915 282.779 574.719 296.424 594.032C312.663 617.017 296.215 658.642 286.016 679.67C284.139 683.54 288.542 688.205 292.489 686.495C309.675 679.049 340.206 667.297 363.56 666.376C404.201 664.773 444.787 680.445 468.626 696.923C472.033 699.278 477.104 696.281 476.332 692.213L397.925 278.94Z" stroke="black" stroke-width="49.68" mask="url(#path-27-outside-10_4173_3808)"/>
</g>
<path id="Rectangle 1204_2" d="M404.16 294.712C404.001 293.736 403.529 292.859 402.787 292.204C396.191 286.388 361.977 256.71 335.546 243.247C311.637 231.07 274.977 222.423 255.906 218.463C251.861 217.623 249.093 222.516 251.709 225.719C269.411 247.396 307.971 300.747 291.755 336.795C278.741 365.724 232.069 379.91 210.165 385.094C206.253 386.021 205.191 391.642 208.508 393.93C227.855 407.274 269.259 439.554 272.665 473.464C276.023 506.908 242.906 546.763 227.421 563.396C224.742 566.274 226.847 571.417 230.777 571.679C248.512 572.863 282.6 577.623 295.417 596.599C310.658 619.163 293.633 658.586 282.989 678.763C280.982 682.567 285.224 687.416 289.231 685.851C306.405 679.144 336.59 668.771 359.483 668.562C399.461 668.197 438.904 684.485 461.928 701.094C465.28 703.512 470.394 700.654 469.73 696.579L404.16 294.712Z" fill="#FF6F0F"/>
<path id="vein_5" d="M211.203 389.383C208.759 389.795 208.898 393.27 211.363 393.57C228.937 395.704 259.037 399.77 280.726 404.872C302.976 410.105 335.373 420.899 344.941 424.139C346.315 424.604 347.745 423.62 347.792 422.172L348.807 390.854C348.842 389.769 348.08 388.824 347.008 388.649C338.973 387.334 306.658 382.256 284.794 381.932C261.553 381.588 229.45 386.31 211.203 389.383Z" fill="#D54811"/>
<path id="vein_6" d="M231.274 565.877C229.16 567.2 230.537 570.389 232.925 569.718C249.983 564.926 279.315 557.107 301.232 553.489C323.739 549.774 357.652 547.316 367.667 546.641C369.103 546.544 370.068 545.077 369.592 543.71L359.312 514.208C358.954 513.183 357.91 512.595 356.856 512.845C348.943 514.719 317.165 522.46 296.782 530.591C275.131 539.228 247.091 555.981 231.274 565.877Z" fill="#D54811"/>
<path id="vein_7" d="M286.572 682.293C285.07 684.303 287.485 686.812 289.462 685.307C303.717 674.462 328.259 656.296 347.376 644.782C367.094 632.906 397.91 617.947 406.955 613.611C408.244 612.993 408.607 611.272 407.684 610.164L387.913 586.447C387.217 585.612 386.037 585.441 385.149 586.061C378.444 590.747 351.49 609.834 335.301 625.037C318.165 641.129 297.904 667.132 286.572 682.293Z" fill="#D54811"/>
<path id="vein_8" d="M258.921 222.726C256.844 221.461 254.784 224.223 256.45 226.029C268.703 239.305 289.446 262.369 303.053 280.653C317.072 299.489 335.543 329.411 340.842 338.084C341.586 339.303 343.242 339.441 344.164 338.369L364.242 315.002C364.939 314.192 364.948 312.975 364.252 312.158C358.921 305.899 337.036 280.517 320.317 265.752C302.588 250.097 274.903 232.457 258.921 222.726Z" fill="#D54811"/>
</g>
<g id="heand">
<g id="head-lt-yel_4">
<mask id="path-33-inside-11_4173_3808" fill="white">
<path d="M708.761 834.404C683.779 805.365 688.609 762.606 718.111 737.225C747.613 711.844 790.614 713.451 815.597 742.49C840.58 771.528 836.916 815.644 807.414 841.025C777.912 866.407 733.744 863.442 708.761 834.404Z"/>
</mask>
<path d="M708.761 834.404C683.779 805.365 688.609 762.606 718.111 737.225C747.613 711.844 790.614 713.451 815.597 742.49C840.58 771.528 836.916 815.644 807.414 841.025C777.912 866.407 733.744 863.442 708.761 834.404Z" stroke="#FFC45D" stroke-width="40.0377" mask="url(#path-33-inside-11_4173_3808)"/>
</g>
<ellipse id="head-md-org_4" cx="757.732" cy="783.277" rx="61.1177" ry="62.3566" transform="rotate(139.294 757.732 783.277)" fill="#FF995D"/>
<ellipse id="head-org-dk_4" cx="753.928" cy="778.857" rx="60.403" ry="56.5199" transform="rotate(139.294 753.928 778.857)" fill="#FF6105"/>
<g id="head-black_4">
<mask id="path-36-inside-12_4173_3808" fill="white">
<path d="M709.266 839.9C682.731 809.058 686.223 762.544 717.066 736.009C747.909 709.473 794.423 712.966 820.958 743.808C847.493 774.651 844.001 821.165 813.158 847.7C782.315 874.235 735.801 870.743 709.266 839.9Z"/>
</mask>
<path d="M709.266 839.9C682.731 809.058 686.223 762.544 717.066 736.009C747.909 709.473 794.423 712.966 820.958 743.808C847.493 774.651 844.001 821.165 813.158 847.7C782.315 874.235 735.801 870.743 709.266 839.9Z" stroke="black" stroke-width="43.2" mask="url(#path-36-inside-12_4173_3808)"/>
</g>
</g>
<g id="left-arm">
<g id="hand-l">
<g id="head-lt-yel_5">
<mask id="path-37-inside-13_4173_3808" fill="white">
<path d="M252.75 835.093C228.023 805.837 233.229 763.122 262.953 738C292.677 712.879 335.662 714.865 360.389 744.122C385.115 773.378 381.064 817.46 351.341 842.582C321.617 867.703 277.476 864.35 252.75 835.093Z"/>
</mask>
<path d="M252.75 835.093C228.023 805.837 233.229 763.122 262.953 738C292.677 712.879 335.662 714.865 360.389 744.122C385.115 773.378 381.064 817.46 351.341 842.582C321.617 867.703 277.476 864.35 252.75 835.093Z" stroke="#FFC45D" stroke-width="40.0377" mask="url(#path-37-inside-13_4173_3808)"/>
</g>
<ellipse id="head-md-org_5" cx="302.163" cy="784.4" rx="61.1177" ry="62.3566" transform="rotate(139.797 302.163 784.4)" fill="#FF995D"/>
<ellipse id="head-org-dk_5" cx="298.403" cy="779.947" rx="60.403" ry="56.5199" transform="rotate(139.797 298.403 779.947)" fill="#FF6105"/>
<g id="head-black_5">
<mask id="path-40-inside-14_4173_3808" fill="white">
<path d="M253.2 840.597C226.937 809.522 230.838 763.041 261.912 736.778C292.987 710.514 339.469 714.415 365.732 745.49C391.995 776.565 388.094 823.046 357.019 849.309C325.944 875.572 279.463 871.672 253.2 840.597Z"/>
</mask>
<path d="M253.2 840.597C226.937 809.522 230.838 763.041 261.912 736.778C292.987 710.514 339.469 714.415 365.732 745.49C391.995 776.565 388.094 823.046 357.019 849.309C325.944 875.572 279.463 871.672 253.2 840.597Z" stroke="black" stroke-width="43.2" mask="url(#path-40-inside-14_4173_3808)"/>
</g>
</g>
<g id="arm-l" filter="url(#filter0_d_4173_3808)">
<path d="M273.788 747.395C266.62 738.245 267.359 724.899 275.307 716.5L400.745 583.959C409.4 574.814 423.433 574.814 432.088 583.959L501.707 657.52C510.362 666.665 510.362 681.493 501.707 690.639L376.269 823.18C368.321 831.578 355.69 832.358 347.03 824.785C335.37 814.587 319.461 800.233 308.243 788.379C297.024 776.525 283.439 759.715 273.788 747.395Z" fill="black"/>
</g>
</g>
<g id="Rectangle 1201" filter="url(#filter1_d_4173_3808)">
<path d="M798.14 742.163C805.009 733.393 804.302 720.601 796.683 712.551L676.457 585.517C668.161 576.751 654.711 576.751 646.416 585.517L579.689 656.022C571.394 664.787 571.394 678.999 579.689 687.764L699.916 814.799C707.534 822.849 719.64 823.596 727.94 816.338C739.116 806.564 754.364 792.806 765.116 781.444C775.869 770.083 788.89 753.971 798.14 742.163Z" fill="black"/>
</g>
<rect id="Rectangle 1199" x="451.699" y="680.4" width="176.04" height="230.04" fill="black"/>
<path id="Rectangle 1198" d="M375.173 591.83C376.306 577.207 388.502 565.92 403.169 565.92H676.274C690.94 565.92 703.136 577.207 704.27 591.83L732.316 953.63C733.581 969.944 720.684 983.88 704.32 983.88H601.599C586.609 983.88 574.249 972.134 573.402 957.168C569.4 886.408 557.129 699.409 539.181 698C521.248 696.592 512.172 885.026 509.37 956.686C508.777 971.854 496.332 983.88 481.152 983.88H375.122C358.759 983.88 345.862 969.944 347.126 953.63L375.173 591.83Z" fill="black"/>
<path id="Polygon 10" d="M540.261 798.121L427.089 623.971L653.434 623.971L540.261 798.121Z" fill="white"/>
<g id="Ellipse 185" filter="url(#filter2_d_4173_3808)">
<path d="M585.622 194.401C585.622 194.401 558.029 192.125 540.262 192.125C522.496 192.125 494.902 194.401 494.902 194.401C494.902 135.351 494.909 65.8809 540.262 65.8809C585.616 65.8809 585.622 135.351 585.622 194.401Z" fill="black"/>
</g>
<g id="head" filter="url(#filter3_d_4173_3808)">
<g id="head-lt-yel_6">
<mask id="path-47-inside-15_4173_3808" fill="white">
<path d="M790.817 408.71C790.817 544.367 678.396 648 539.717 648C401.038 648 288.617 544.367 288.617 408.71C288.617 273.052 401.038 163.08 539.717 163.08C678.396 163.08 790.817 273.052 790.817 408.71Z"/>
</mask>
<path d="M790.817 408.71C790.817 544.367 678.396 648 539.717 648C401.038 648 288.617 544.367 288.617 408.71C288.617 273.052 401.038 163.08 539.717 163.08C678.396 163.08 790.817 273.052 790.817 408.71Z" stroke="#FFC45D" stroke-width="54" mask="url(#path-47-inside-15_4173_3808)"/>
</g>
<ellipse id="head-md-org_6" cx="539.72" cy="403.379" rx="243.54" ry="221.94" fill="#FF995D"/>
<ellipse id="head-org-dk_6" cx="539.72" cy="429.301" rx="247.478" ry="225.18" fill="#FF6105"/>
<path id="head-white" d="M779.954 469.276C779.954 552.438 648.607 647.999 540.227 647.999C431.847 647.999 300.5 552.438 300.5 469.276C300.5 386.114 434.344 369.359 540.227 369.359C646.11 369.359 779.954 386.114 779.954 469.276Z" fill="url(#paint0_radial_4173_3808)"/>
<g id="head-black_6">
<mask id="path-51-inside-16_4173_3808" fill="white">
<path d="M802.702 397.979C802.702 539.64 684.962 654.479 539.722 654.479C394.482 654.479 276.742 539.64 276.742 397.979C276.742 256.317 394.482 141.479 539.722 141.479C684.962 141.479 802.702 256.317 802.702 397.979Z"/>
</mask>
<path d="M802.702 397.979C802.702 539.64 684.962 654.479 539.722 654.479C394.482 654.479 276.742 539.64 276.742 397.979C276.742 256.317 394.482 141.479 539.722 141.479C684.962 141.479 802.702 256.317 802.702 397.979Z" stroke="black" stroke-width="56.16" mask="url(#path-51-inside-16_4173_3808)"/>
</g>
</g>
<g id="horn_2">
<mask id="path-52-inside-17_4173_3808" fill="white">
<path d="M565.102 181.44C565.102 181.44 549.991 179.738 540.262 179.738C530.533 179.738 515.422 181.44 515.422 181.44C515.422 137.277 515.426 85.3203 540.262 85.3203C565.098 85.3203 565.102 137.277 565.102 181.44Z"/>
</mask>
<path d="M565.102 181.44C565.102 181.44 549.991 179.738 540.262 179.738C530.533 179.738 515.422 181.44 515.422 181.44C515.422 137.277 515.426 85.3203 540.262 85.3203C565.098 85.3203 565.102 137.277 565.102 181.44Z" fill="#FF995D" stroke="#FFC45D" stroke-width="19.44" mask="url(#path-52-inside-17_4173_3808)"/>
</g>
<g id="eye">
<circle id="right black" cx="455.279" cy="375.756" r="55.5216" fill="black"/>
<circle id="right white" cx="473.664" cy="369.722" r="18.7224" fill="white"/>
</g>
<g id="eye_2">
<circle id="right black_2" cx="621.901" cy="375.756" r="55.5216" fill="black"/>
<circle id="right white_2" cx="639.679" cy="369.76" r="18.7224" fill="white"/>
</g>
<circle id="button-white" cx="540.259" cy="834.839" r="14.04" fill="url(#paint1_radial_4173_3808)"/>
<g id="buttons">
<circle id="Ellipse 188" cx="540.259" cy="760.32" r="9.72" fill="black"/>
<circle id="Ellipse 189" cx="540.259" cy="722.519" r="9.72" fill="black"/>
</g>
<g id="bowtie">
<circle id="Ellipse 190" cx="539.72" cy="673.38" r="18.9" fill="black"/>
<path id="Polygon 11" d="M537.792 671.833C539.085 674.159 537.989 677.089 535.487 677.994L489.888 694.502C487.072 695.522 484.098 693.436 484.098 690.44L484.098 638.309C484.098 635.218 487.249 633.127 490.096 634.328L523.788 648.535C524.678 648.91 525.416 649.573 525.885 650.417L537.792 671.833Z" fill="black"/>
<path id="Polygon 12" d="M543.278 671.692C541.739 674.024 542.785 677.182 545.413 678.134L590.627 694.502C593.444 695.522 596.418 693.436 596.418 690.44L596.418 638.36C596.418 635.256 593.242 633.165 590.39 634.392L560.164 647.397C559.39 647.73 558.73 648.282 558.266 648.985L543.278 671.692Z" fill="black"/>
</g>
<path id="mouth" d="M492.742 478.439C501.284 498.937 517.997 509.966 540.202 509.757C562.094 509.55 578.281 498.649 586.702 478.439" stroke="black" stroke-width="17.28" stroke-linecap="round"/>
</g>
<defs>
<filter id="filter0_d_4173_3808" x="253.728" y="577.1" width="256.632" height="279.906" filterUnits="userSpaceOnUse" color-interpolation-filters="sRGB">
<feFlood flood-opacity="0" result="BackgroundImageFix"/>
<feColorMatrix in="SourceAlpha" type="matrix" values="0 0 0 0 0 0 0 0 0 0 0 0 0 0 0 0 0 0 127 0" result="hardAlpha"/>
<feOffset dx="-6.48" dy="18.36"/>
<feGaussianBlur stdDeviation="4.32"/>
<feComposite in2="hardAlpha" operator="out"/>
<feColorMatrix type="matrix" values="0 0 0 0 0 0 0 0 0 0 0 0 0 0 0 0 0 0 0.25 0"/>
<feBlend mode="normal" in2="BackgroundImageFix" result="effect1_dropShadow_4173_3808"/>
<feBlend mode="normal" in="SourceGraphic" in2="effect1_dropShadow_4173_3808" result="shape"/>
</filter>
<filter id="filter1_d_4173_3808" x="568.069" y="578.943" width="248.846" height="270.478" filterUnits="userSpaceOnUse" color-interpolation-filters="sRGB">
<feFlood flood-opacity="0" result="BackgroundImageFix"/>
<feColorMatrix in="SourceAlpha" type="matrix" values="0 0 0 0 0 0 0 0 0 0 0 0 0 0 0 0 0 0 127 0" result="hardAlpha"/>
<feOffset dx="4.32" dy="18.36"/>
<feGaussianBlur stdDeviation="4.86"/>
<feComposite in2="hardAlpha" operator="out"/>
<feColorMatrix type="matrix" values="0 0 0 0 0 0 0 0 0 0 0 0 0 0 0 0 0 0 0.25 0"/>
<feBlend mode="normal" in2="BackgroundImageFix" result="effect1_dropShadow_4173_3808"/>
<feBlend mode="normal" in="SourceGraphic" in2="effect1_dropShadow_4173_3808" result="shape"/>
</filter>
<filter id="filter2_d_4173_3808" x="494.902" y="65.8809" width="116.639" height="153.36" filterUnits="userSpaceOnUse" color-interpolation-filters="sRGB">
<feFlood flood-opacity="0" result="BackgroundImageFix"/>
<feColorMatrix in="SourceAlpha" type="matrix" values="0 0 0 0 0 0 0 0 0 0 0 0 0 0 0 0 0 0 127 0" result="hardAlpha"/>
<feOffset dx="21.6" dy="20.52"/>
<feGaussianBlur stdDeviation="2.16"/>
<feComposite in2="hardAlpha" operator="out"/>
<feColorMatrix type="matrix" values="0 0 0 0 0 0 0 0 0 0 0 0 0 0 0 0 0 0 0.25 0"/>
<feBlend mode="normal" in2="BackgroundImageFix" result="effect1_dropShadow_4173_3808"/>
<feBlend mode="normal" in="SourceGraphic" in2="effect1_dropShadow_4173_3808" result="shape"/>
</filter>
<filter id="filter3_d_4173_3808" x="267.022" y="141.479" width="577.801" height="564.842" filterUnits="userSpaceOnUse" color-interpolation-filters="sRGB">
<feFlood flood-opacity="0" result="BackgroundImageFix"/>
<feColorMatrix in="SourceAlpha" type="matrix" values="0 0 0 0 0 0 0 0 0 0 0 0 0 0 0 0 0 0 127 0" result="hardAlpha"/>
<feOffset dx="16.2" dy="25.92"/>
<feGaussianBlur stdDeviation="12.96"/>
<feComposite in2="hardAlpha" operator="out"/>
<feColorMatrix type="matrix" values="0 0 0 0 0 0 0 0 0 0 0 0 0 0 0 0 0 0 0.35 0"/>
<feBlend mode="normal" in2="BackgroundImageFix" result="effect1_dropShadow_4173_3808"/>
<feBlend mode="normal" in="SourceGraphic" in2="effect1_dropShadow_4173_3808" result="shape"/>
</filter>
<radialGradient id="paint0_radial_4173_3808" cx="0" cy="0" r="1" gradientUnits="userSpaceOnUse" gradientTransform="translate(540.771 461.77) rotate(90.1672) scale(186.23 293.287)">
<stop stop-color="white"/>
<stop offset="0.767013" stop-color="white"/>
<stop offset="0.769271" stop-color="#C8C8C8"/>
</radialGradient>
<radialGradient id="paint1_radial_4173_3808" cx="0" cy="0" r="1" gradientUnits="userSpaceOnUse" gradientTransform="translate(536.479 828.899) rotate(67.2856) scale(25.1723 22.1943)">
<stop stop-color="white"/>
<stop offset="0.625017" stop-color="white"/>
<stop offset="1"/>
</radialGradient>
<clipPath id="clip0_4173_3808">
<rect width="1080" height="1080" fill="white" transform="translate(0.257812)"/>
</clipPath>
</defs>
</svg>
