<svg width="176" height="38" viewBox="0 0 176 38" fill="none" xmlns="http://www.w3.org/2000/svg">
<path id="green-squiggle" fill-rule="evenodd" clip-rule="evenodd" d="M171.58 16.3185C163.74 16.3185 155.9 16.3185 148.2 16.4585C144.5 16.4585 140.95 16.6085 137.4 16.4585C135.768 16.5066 134.135 16.4095 132.52 16.1685C131.737 16.0775 130.981 15.8255 130.3 15.4285C130.071 15.2895 129.821 15.1882 129.56 15.1285L129.41 14.9785C130 12.4585 127.19 10.5385 124.97 10.9785C106.77 14.6885 88.7201 18.3885 70.6701 22.0885C61.7901 23.8685 52.9101 25.6485 44.0301 27.5785C37.8201 28.7585 31.0301 30.5785 24.6501 30.0885C27.1701 28.1685 31.0101 26.8285 33.2301 25.7985C38.7101 23.4285 44.1801 21.0585 49.8001 18.7985C61.0501 14.3585 72.7401 10.5085 84.4301 6.94852C88.1301 5.94852 87.5401 -0.46148 83.4301 -0.0514801C55.905 2.94137 28.7759 8.85123 2.50007 17.5785C-1.79993 19.0585 -0.0199156 25.8785 4.42008 24.3885C17.3458 20.1118 30.4832 16.5037 43.7801 13.5785C38.0101 15.9485 32.2401 18.3185 26.4701 21.1285C21.8801 23.3585 16.4001 26.3185 15.2201 31.6485C14.9745 32.5328 15.0851 33.4781 15.5281 34.2819C15.9711 35.0856 16.7113 35.6839 17.5901 35.9485C25.5901 38.3185 34.0101 36.6885 41.8501 35.0585L70.2601 29.2785C87.8701 25.7285 105.48 22.1685 123.26 18.4685C124.372 19.9561 125.85 21.1308 127.55 21.8785C131.39 23.6485 135.83 23.4985 139.98 23.4985C150.48 23.4985 161.14 23.3585 171.64 23.3585C176.17 23.4285 176.17 16.3185 171.58 16.3185Z" fill="#42E794"/>
</svg>
