<svg width="312" height="15" viewBox="0 0 312 15" fill="none" xmlns="http://www.w3.org/2000/svg">
<path id="long-green-squiggle" d="M310.548 -0.00649411C311.5 2.23867e-07 311.986 1.1277 312 1.99219C312.016 3.00779 311.2 3.67018 310.548 4C309.895 4.32982 308.683 4.69507 308.217 5.18979C307.284 6.01456 306.631 7.08678 305.886 8.07651C304.86 9.47864 304.021 10.9639 302.809 12.2835C299.733 15.7476 294.698 15.8293 291.342 12.6126C290.223 11.5404 289.476 10.3039 288.544 9.06674C287.705 7.91205 287.052 6.75712 286.12 5.68491C284.442 3.78796 282.391 3.78792 280.806 5.68491C279.873 6.83948 279.221 8.15923 278.289 9.31381C277.263 10.7158 276.238 12.1181 274.932 13.2728C272.229 15.5821 268.219 15.5001 265.329 13.3558C263.558 12.0362 262.532 10.2216 261.413 8.48959C260.667 7.41747 259.921 6.26248 258.989 5.2728C257.684 3.95315 256.005 3.95264 254.7 5.18979C253.861 6.01456 253.208 7.00422 252.556 7.91147C251.53 9.39601 250.598 10.8809 249.479 12.2005C246.123 15.9121 240.622 15.9121 237.358 12.2005C236.146 10.8809 235.308 9.31351 234.282 7.91147C233.63 7.00424 233.07 6.09711 232.324 5.35483C230.926 3.87023 229.061 3.87075 227.662 5.43784C226.916 6.26254 226.264 7.25239 225.611 8.15952C224.586 9.56159 223.746 11.046 222.534 12.3656C219.457 15.747 214.423 15.8293 211.16 12.6126C209.948 11.3755 209.109 9.89123 208.083 8.57162C207.43 7.66441 206.778 6.59212 206.032 5.68491C204.447 3.7879 202.396 3.7879 200.718 5.68491C200.158 6.26226 199.692 7.00457 199.226 7.6644C198.293 9.06645 197.455 10.4688 196.336 11.7884C194.652 13.8155 192.406 14.8451 190.138 14.8802C187.793 15.2238 185.314 14.4671 183.387 12.6205C182.268 11.5482 181.521 10.3117 180.589 9.07455C179.75 7.91986 179.097 6.76493 178.165 5.69272C177.379 4.80445 176.512 4.3321 175.648 4.27573C175.134 4.47171 174.627 4.82936 174.146 5.35483C173.307 6.42691 172.654 7.58155 171.815 8.65366C170.883 9.89083 170.137 11.2113 169.111 12.2835C167.587 13.9094 165.632 14.7694 163.649 14.8607C161.522 15.2593 159.22 14.7332 157.374 13.3636C155.603 12.044 154.577 10.2294 153.458 8.49741C152.712 7.42528 151.966 6.27029 151.034 5.28061C150.429 4.66838 149.742 4.34278 149.051 4.29038C148.498 4.462 147.962 4.81619 147.481 5.35483C146.736 6.26209 146.083 7.33481 145.337 8.32455C144.311 9.72663 143.378 11.293 142.073 12.6126C140.676 14.0485 138.82 14.7876 136.929 14.8441C134.253 15.363 131.407 14.4868 129.403 12.2083C128.191 10.8887 127.353 9.32132 126.327 7.91928C125.674 7.01205 125.115 6.10492 124.369 5.36264C123.733 4.68759 123.001 4.32034 122.26 4.26694C121.599 4.50881 120.953 5.00869 120.349 5.76694C119.417 6.92164 118.765 8.24212 117.833 9.39682C116.901 10.634 115.968 11.8711 114.756 13.0257C113.701 14.0309 112.292 14.5978 110.715 14.7279C108.14 15.3921 105.306 14.6915 103.205 12.6205C101.993 11.3833 101.153 9.89904 100.128 8.57944C99.4752 7.67222 98.8228 6.59993 98.077 5.69272C96.492 3.79571 94.4408 3.79571 92.7626 5.69272C92.2032 6.27007 91.7365 7.01239 91.2704 7.67221C90.3381 9.07427 89.4995 10.4767 88.3807 11.7962C85.0243 15.8376 79.4305 15.9197 75.8876 12.0433C74.9552 10.9711 74.2086 9.8167 73.4628 8.74448C72.717 7.58997 72.0648 6.43527 71.1327 5.44565C69.641 3.7137 67.7762 3.63091 66.1913 5.36264C65.3523 6.43473 64.6992 7.58936 63.8602 8.66147C62.9279 9.89865 62.1817 11.2191 61.1561 12.2914C57.9862 15.6726 52.9515 15.7552 49.6884 12.4564C48.5696 11.3842 47.7301 9.98165 46.7977 8.74448C45.8655 7.58985 45.2129 6.35276 44.1874 5.28061C42.789 3.79608 40.9247 3.79581 39.5263 5.36264C38.7804 6.2699 38.1276 7.34262 37.3817 8.33237C36.3562 9.73444 35.4233 11.3009 34.1181 12.6205C31.2278 15.5897 26.3793 15.5902 23.3026 12.7035C22.2772 11.7139 21.4385 10.5592 20.5995 9.40463C19.6672 8.24993 19.0143 6.92945 18.0819 5.77475C16.3105 3.54815 14.1658 3.54801 12.3944 5.77475C11.4621 6.92945 10.8102 8.24993 9.87781 9.40463C8.9455 10.6418 8.01267 11.8789 6.80067 13.0335C5.58864 14.1881 2.91551 15.2703 2.04578 14.765C1.17605 14.2597 0.461195 13.7085 0.501636 12.7035C0.540046 11.7489 0.740648 10.971 2.04578 10.806C3.35092 10.641 4.19005 9.98168 4.84266 9.07455C5.68177 7.91986 6.42738 6.76441 7.26649 5.60971C8.19877 4.3726 9.03792 3.05298 10.2499 1.98081C13.0469 -0.493544 17.2429 -0.575657 20.0399 1.73374C21.6248 3.05331 22.6502 4.70287 23.8622 6.26987C24.7945 7.34208 25.4474 8.57949 26.3798 9.6517C27.7782 11.2188 29.7361 11.2187 31.1346 9.6517C31.9737 8.66204 32.6262 7.58962 33.372 6.59995C34.3975 5.28039 35.2372 3.79605 36.4491 2.55893C39.4326 -0.65768 44.2806 -0.740669 47.5438 2.31088C48.6626 3.38309 49.4084 4.6206 50.3407 5.85776C51.1798 7.01246 51.8332 8.2494 52.7655 9.32162C54.4437 11.3835 56.4946 11.3011 58.1727 9.32162C59.0118 8.3319 59.571 7.17702 60.41 6.10483C61.4356 4.70272 62.368 3.30053 63.58 2.14584C66.5634 -0.575884 71.0388 -0.575758 74.0223 2.14584C75.2343 3.30047 76.1668 4.78523 77.1923 6.10483C78.0313 7.25945 78.7776 8.49653 79.7098 9.5687C81.2016 11.1358 83.0667 11.1358 84.5585 9.5687C85.4905 8.57912 86.1428 7.50692 86.8885 6.43491C87.7276 5.19773 88.5671 3.87769 89.5926 2.72299C92.8557 -0.823213 98.2631 -0.823103 101.526 2.72299C102.365 3.63026 103.019 4.70298 103.765 5.69272C104.604 6.92975 105.349 8.16705 106.281 9.32162C107.959 11.3011 110.011 11.3015 111.689 9.23959C112.622 8.08489 113.274 6.76441 114.206 5.60971C115.231 4.37255 116.165 2.97098 117.377 1.89878C119.008 0.500654 121.03 -0.106994 123 0.0599121C124.781 -0.00543737 126.57 0.549134 127.995 1.72593C129.58 3.0455 130.605 4.69506 131.817 6.26205C132.75 7.33427 133.403 8.57167 134.335 9.64389C134.888 10.2639 135.529 10.6375 136.188 10.7669C136.877 10.6468 137.554 10.2475 138.168 9.5687C139.1 8.57903 139.753 7.42453 140.499 6.43491C141.618 4.95037 142.55 3.38295 143.855 2.14584C145.634 0.429552 147.973 -0.238154 150.207 0.0765137C152.082 0.126394 153.966 0.869151 155.499 2.30307C156.618 3.37527 157.364 4.61279 158.296 5.84995C159.135 7.00464 159.788 8.24159 160.721 9.31381C161.352 10.0895 162.036 10.5606 162.733 10.7425C163.478 10.6767 164.211 10.3119 164.833 9.6517C165.579 8.82698 166.231 7.83721 166.884 6.93002C167.909 5.52794 168.748 4.04315 169.867 2.806C171.79 0.679484 174.387 -0.22679 176.867 0.0989746C178.695 0.125349 180.515 0.804168 181.978 2.13803C183.189 3.29266 184.122 4.77742 185.147 6.09702C185.986 7.25164 186.733 8.48871 187.665 9.56088C188.249 10.1747 188.891 10.547 189.545 10.68C190.131 10.6086 190.708 10.35 191.218 9.89877C191.964 9.23895 192.616 8.41398 193.176 7.5892C194.015 6.3521 194.761 5.03235 195.693 3.79526C197.372 1.56854 199.516 0.166267 202.593 0.00131838C202.593 0.0377166 202.592 0.0744005 202.592 0.110693C205.055 -0.177295 207.618 0.690025 209.481 2.71518C210.321 3.62244 210.974 4.69516 211.72 5.68491C212.559 6.92194 213.304 8.15924 214.236 9.31381C215.914 11.2933 217.966 11.2936 219.645 9.23178C220.577 8.07708 221.229 6.7566 222.161 5.6019C223.187 4.36474 224.12 2.96317 225.332 1.89097C228.315 -0.665684 232.604 -0.583251 235.494 2.056C236.706 3.21067 237.546 4.53033 238.571 5.84995C239.503 7.08692 240.249 8.40635 241.274 9.56088C242.766 11.2105 244.631 11.2105 246.123 9.56088C247.055 8.57122 247.708 7.41672 248.454 6.42709C249.573 4.94255 250.505 3.37514 251.811 2.13803C254.887 -0.830768 259.641 -0.665851 262.625 2.30307C263.744 3.54016 264.583 4.94248 265.608 6.26205C266.447 7.41673 267.101 8.57116 268.033 9.56088C269.432 11.128 271.389 11.1285 272.788 9.64389C273.534 8.81917 274.186 7.8294 274.839 6.92221C275.864 5.52013 276.703 4.03534 277.822 2.79819C281.179 -0.913267 286.586 -0.913552 289.849 2.88022C291.062 4.28235 291.994 5.93272 293.113 7.41733C293.766 8.24196 294.325 9.14881 295.164 9.89096C296.376 10.9632 297.961 10.9632 299.173 9.89096C299.919 9.23114 300.571 8.40617 301.131 7.58139C301.97 6.34429 302.716 5.02453 303.648 3.78744C305.326 1.56073 308.361 -0.0214095 310.548 -0.00649411Z" fill="#41E894"/>
</svg>
