<svg width="205" height="15" viewBox="0 0 205 15" fill="none" xmlns="http://www.w3.org/2000/svg">
<path id="title-underline" d="M202.547 0.00172138C201.5 0 197.326 1.56881 195.648 3.79573C194.715 5.03291 193.97 6.35256 193.13 7.58974C192.571 8.41453 191.918 9.23931 191.173 9.89914C189.961 10.9714 188.376 10.9714 187.163 9.89914C186.324 9.15684 185.765 8.24957 185.112 7.42479C183.994 5.94017 183.061 4.2906 181.849 2.88847C178.586 -0.905542 173.178 -0.905547 169.822 2.80599C168.703 4.04316 167.864 5.52778 166.838 6.92991C166.186 7.83717 165.533 8.82692 164.787 9.6517C163.389 11.1363 161.431 11.1363 160.032 9.56923C159.1 8.57948 158.447 7.42479 157.608 6.27009C156.583 4.95043 155.744 3.54829 154.625 2.31112C151.641 -0.658111 146.886 -0.823065 143.81 2.14616C142.504 3.38334 141.572 4.95043 140.453 6.43504C139.707 7.42478 139.055 8.57948 138.122 9.56923C136.631 11.2188 134.766 11.2188 133.274 9.56923C132.249 8.41453 131.503 7.09487 130.57 5.85769C129.545 4.53804 128.706 3.21838 127.494 2.06368C124.603 -0.575629 120.315 -0.65811 117.331 1.89872C116.119 2.97094 115.187 4.37308 114.161 5.61026C113.229 6.76496 112.576 8.08461 111.644 9.23931C109.966 11.3013 107.914 11.3013 106.236 9.32179C105.304 8.16709 104.558 6.92991 103.719 5.69273C102.973 4.70299 102.32 3.63077 101.481 2.72351C98.2181 -0.823068 92.8105 -0.823068 89.5473 2.72351C88.5218 3.87821 87.6826 5.19786 86.8435 6.43504C86.0977 7.50726 85.445 8.57948 84.5127 9.56923C83.0209 11.1363 81.1562 11.1363 79.6644 9.56923C78.7321 8.49701 77.9863 7.25982 77.1472 6.10513C76.1216 4.78547 75.1892 3.30086 73.9772 2.14616C70.9937 -0.575629 66.5185 -0.575629 63.535 2.14616C62.323 3.30086 61.3906 4.70299 60.365 6.10513C59.5259 7.17735 58.9665 8.33205 58.1274 9.32179C56.4492 11.3013 54.3981 11.3838 52.7199 9.32179C51.7875 8.24957 51.1348 7.01239 50.2957 5.85769C49.3633 4.62052 48.6175 3.38334 47.4987 2.31112C44.2355 -0.740589 39.3874 -0.658108 36.4039 2.55855C35.1918 3.79573 34.3527 5.28035 33.3271 6.6C32.5812 7.58974 31.9286 8.66196 31.0895 9.6517C29.691 11.2188 27.7331 11.2188 26.3346 9.6517C25.4022 8.57948 24.7496 7.34231 23.8173 6.27009C22.6052 4.70299 21.5796 3.05342 19.9946 1.73377C17.1976 -0.57563 13.002 -0.493155 10.205 1.9812C8.99296 3.05342 8.1539 4.37308 7.22156 5.61026C6.38245 6.76496 5.6366 7.91966 4.79749 9.07436C4.14485 9.98162 3.26185 10.5623 2.00047 10.8064C1 11 0.5 12 0.5 13C0.5 14 1.0952 14.5 2 14.5C3.5 14.5 5.54334 14.188 6.75538 13.0333C7.96743 11.8786 8.89981 10.6414 9.83216 9.40427C10.7645 8.24957 11.4171 6.92992 12.3494 5.77522C14.1209 3.5483 16.2652 3.5483 18.0367 5.77522C18.969 6.92992 19.6217 8.24957 20.5541 9.40427C21.3932 10.559 22.2322 11.7137 23.2578 12.7034C26.3345 15.5902 31.1828 15.5902 34.073 12.6209C35.3783 11.3013 36.3107 9.73418 37.3362 8.33205C38.0821 7.34231 38.7347 6.27009 39.4805 5.36282C40.8791 3.79573 42.7437 3.79573 44.1423 5.28034C45.1678 6.35256 45.8205 7.58974 46.7529 8.74444C47.6852 9.98162 48.5243 11.3838 49.6431 12.456C52.9063 15.7551 57.941 15.6726 61.1109 12.291C62.1365 11.2188 62.8823 9.89914 63.8146 8.66196C64.6537 7.58974 65.3064 6.43505 66.1455 5.36282C67.7305 3.63078 69.5952 3.71325 71.0869 5.4453C72.0193 6.43504 72.6719 7.58974 73.4178 8.74444C74.1637 9.81666 74.9095 10.9714 75.8419 12.0436C79.3848 15.9201 84.9788 15.8376 88.3353 11.7961C89.4541 10.4765 90.2932 9.07435 91.2255 7.67222C91.6917 7.01239 92.1578 6.27008 92.7172 5.69273C94.3954 3.79573 96.4467 3.79573 98.0316 5.69273C98.7775 6.6 99.4301 7.67222 100.083 8.57948C101.108 9.89914 101.947 11.3838 103.16 12.6209C106.423 15.8376 111.457 15.7551 114.534 12.3735C115.746 11.0538 116.585 9.56922 117.611 8.16709C118.263 7.25982 118.916 6.27009 119.662 5.4453C121.06 3.87821 122.925 3.87821 124.324 5.36282C125.069 6.10513 125.629 7.01239 126.282 7.91966C127.307 9.32179 128.146 10.8889 129.358 12.2085C132.621 15.9201 138.122 15.9201 141.479 12.2085C142.598 10.8889 143.53 9.40427 144.556 7.91966C145.208 7.01239 145.861 6.02265 146.7 5.19786C148.005 3.96069 149.683 3.96068 150.989 5.28034C151.921 6.27008 152.667 7.42478 153.413 8.497C154.532 10.2291 155.557 12.0436 157.329 13.3632C160.219 15.5077 164.228 15.5902 166.932 13.2808C168.237 12.1261 169.263 10.7239 170.288 9.32179C171.22 8.16709 171.873 6.84743 172.805 5.69273C174.39 3.79573 176.442 3.79573 178.12 5.69273C179.052 6.76495 179.705 7.91966 180.544 9.07436C181.476 10.3115 182.222 11.5487 183.341 12.6209C186.697 15.8376 191.732 15.7551 194.809 12.291C196.021 10.9714 196.86 9.48675 197.885 8.08461C198.631 7.09487 199.284 6.02265 200.216 5.19786C200.682 4.70299 201.5 4.5 202.267 4.2906C203.611 3.92376 205.111 3.38827 205 2C204.903 0.768173 203.783 0.00375371 202.547 0.00172138Z" fill="#41E894"/>
</svg>
